<svg width="3986" height="3893" xmlns="http://www.w3.org/2000/svg">
  <rect width="3986" height="3893" rx="0" ry="0" fill="#fff"/>
  <path fill="none" stroke="#dbdbdb" stroke-width="7" d="M2648 134H1363v454h1285z"/>
  <path fill="none" stroke="#dbdbdb" stroke-width="7" d="M2648 133H1363v454h1285z"/>
  <path fill="none" stroke="#a9a9a9" stroke-width="7" d="M2647 133H1362v454h1285z"/>
  <path fill="none" stroke="#a9a9a9" stroke-width="7" d="M2647 132H1362v454h1285z"/>
  <path fill="orange" stroke="#000" stroke-width="7" d="M2646 132H1361v454h1285z"/>
  <text transform="translate(1913 246)" textLength="180" font-family="Arial" font-size="26" baseline-shift="-25">
    Mietzinsbildung
  </text>
  <ellipse cx="2986" cy="1587" rx="245.5" ry="207.5" fill="orange" stroke="#000" stroke-width="7"/>
  <text transform="translate(2773 1567)" textLength="426" font-family="Arial" font-size="26" baseline-shift="-25">
    Bei Geschäftslokale kommen andere
  </text>
  <text transform="translate(2805 1599)" textLength="361" font-family="Arial" font-size="26" baseline-shift="-25">
    Rechtsvorschriften zur Auswahl
  </text>
  <path fill="none" stroke="#dbdbdb" stroke-width="7" d="M2332 2044h-654v301h654zM2332 2648h-654v-299h654zM2332 2044l164 301-164 301zM1678 2044l-164 301 164 301z"/>
  <path fill="none" stroke="#dbdbdb" stroke-width="7" d="M2332 2043h-654v301h654zM2332 2647h-654v-299h654zM2332 2043l164 301-164 301zM1678 2043l-164 301 164 301z"/>
  <path fill="none" stroke="#a9a9a9" stroke-width="7" d="M2331 2043h-654v301h654zM2331 2647h-654v-299h654zM2331 2043l164 301-164 301zM1677 2043l-164 301 164 301z"/>
  <path fill="none" stroke="#a9a9a9" stroke-width="7" d="M2331 2042h-654v301h654zM2331 2646h-654v-299h654zM2331 2042l164 301-164 301zM1677 2042l-164 301 164 301z"/>
  <path fill="orange" stroke="#000" stroke-width="7" d="M2330 2042h-654v301h654z"/>
  <path fill="#bebebe" stroke="#000" stroke-width="7" d="M2330 2646h-654v-299h654z"/>
  <path fill="#fff" stroke="#000" stroke-width="7" d="M2330 2042l164 301-164 301z"/>
  <path fill="red" stroke="#000" stroke-width="7" d="M1676 2042l-164 301 164 301z"/>
  <text transform="translate(1785 2171)" textLength="438" font-family="Arial" font-size="26" baseline-shift="-25">
    Sozialpädagogisch betreutes Wohnen
  </text>
  <text transform="translate(1956 2085)" textLength="94" font-family="Arial" font-size="26" baseline-shift="-25">
    § 1/2 1a
  </text>
  <text transform="translate(1693 2364)" textLength="620" font-family="Arial" font-size="26" baseline-shift="-25">
    Wohnungen ode Wohnräume, die von einer karitativen
  </text>
  <text transform="translate(1757 2397)" textLength="494" font-family="Arial" font-size="26" baseline-shift="-25">
    oder humanitären Organisation im Rahmen
  </text>
  <text transform="translate(1679 2429)" textLength="649" font-family="Arial" font-size="26" baseline-shift="-25">
    sozialpädagogisch betreuten Wohnens vermietet werden
  </text>
  <ellipse cx="2003" cy="983" rx="434.5" ry="226.5" fill="orange" stroke="#000" stroke-width="7"/>
  <text transform="translate(1869 960)" textLength="268" font-family="Arial" font-size="26" baseline-shift="-25">
    Beginn Mietzinsbildung
  </text>
  <text transform="translate(1941 993)" textLength="124" font-family="Arial" font-size="26" baseline-shift="-25">
    nach MRG
  </text>
  <path fill="none" stroke="#dbdbdb" stroke-width="7" d="M2421 1589l-166-226h-499l-167 226 167 227h499z"/>
  <path fill="none" stroke="#dbdbdb" stroke-width="7" d="M2421 1588l-166-226h-499l-167 226 167 227h499z"/>
  <path fill="none" stroke="#a9a9a9" stroke-width="7" d="M2420 1588l-166-226h-499l-167 226 167 227h499z"/>
  <path fill="none" stroke="#a9a9a9" stroke-width="7" d="M2420 1587l-166-226h-499l-167 226 167 227h499z"/>
  <path fill="orange" stroke="#000" stroke-width="7" d="M2419 1587l-166-226h-499l-167 226 167 227h499z"/>
  <text transform="translate(1949 1565)" textLength="110" font-family="Arial" font-size="26" baseline-shift="-25">
    Wohnung
  </text>
  <path fill="none" stroke="#dbdbdb" stroke-width="7" d="M2332 2875h-654v301h654zM2332 3480h-654v-299h654zM2332 2875l164 301-164 302zM1678 2875l-164 301 164 302z"/>
  <path fill="none" stroke="#dbdbdb" stroke-width="7" d="M2332 2874h-654v301h654zM2332 3479h-654v-299h654zM2332 2874l164 301-164 302zM1678 2874l-164 301 164 302z"/>
  <path fill="none" stroke="#a9a9a9" stroke-width="7" d="M2331 2874h-654v301h654zM2331 3479h-654v-299h654zM2331 2874l164 301-164 302zM1677 2874l-164 301 164 302z"/>
  <path fill="none" stroke="#a9a9a9" stroke-width="7" d="M2331 2873h-654v301h654zM2331 3478h-654v-299h654zM2331 2873l164 301-164 302zM1677 2873l-164 301 164 302z"/>
  <path fill="orange" stroke="#000" stroke-width="7" d="M2330 2873h-654v301h654z"/>
  <path fill="#bebebe" stroke="#000" stroke-width="7" d="M2330 3478h-654v-299h654z"/>
  <path fill="#fff" stroke="#000" stroke-width="7" d="M2330 2873l164 301-164 302z"/>
  <path fill="red" stroke="#000" stroke-width="7" d="M1676 2873l-164 301 164 302z"/>
  <text transform="translate(1813 3002)" textLength="382" font-family="Arial" font-size="26" baseline-shift="-25">
    Dienst-, Natural-, Werkswohnung
  </text>
  <text transform="translate(1964 2916)" textLength="79" font-family="Arial" font-size="26" baseline-shift="-25">
    § 1/2/2
  </text>
  <text transform="translate(1699 3196)" textLength="609" font-family="Arial" font-size="26" baseline-shift="-25">
    Wohnungen, die auf Grund eines Dienstverhältnisses
  </text>
  <text transform="translate(1684 3228)" textLength="638" font-family="Arial" font-size="26" baseline-shift="-25">
    oder im Zusammenhang mit einem solchen als Dienst,-
  </text>
  <text transform="translate(1720 3261)" textLength="565" font-family="Arial" font-size="26" baseline-shift="-25">
    Natural- oder Werkswohnung überlassen werden.
  </text>
  <path d="M2003 597v148" fill="none" stroke="#000" stroke-width="15"/>
  <path stroke="#000" stroke-width="15" d="M1995 729l8 16 8-16z"/>
  <path d="M2003 1221v128" fill="none" stroke="#000" stroke-width="15"/>
  <path stroke="#000" stroke-width="15" d="M1995 1334l8 15 8-15z"/>
  <path d="M2430 1587h299" fill="none" stroke="#000" stroke-width="15"/>
  <path stroke="#000" stroke-width="15" d="M2714 1596l15-9-15-8z"/>
  <text transform="translate(2653 1512)" textLength="51" font-family="Arial" font-size="26" baseline-shift="-25">
    Nein
  </text>
  <path d="M2003 1826v204" fill="none" stroke="#000" stroke-width="15"/>
  <path stroke="#000" stroke-width="15" d="M1995 2015l8 15 8-15z"/>
  <text transform="translate(2079 1955)" textLength="26" font-family="Arial" font-size="26" baseline-shift="-25">
    Ja
  </text>
  <path d="M2506 2381h249c3 0 4 2 4 4v370c0 3-1 4-4 4h-786c-1 0-4 2-4 4v99" fill="none" stroke="#000" stroke-width="15"/>
  <path stroke="#000" stroke-width="15" d="M1957 2847l8 15 9-15z"/>
  <text transform="translate(2041 2786)" textLength="51" font-family="Arial" font-size="26" baseline-shift="-25">
    Nein
  </text>
  <path fill="none" stroke="#dbdbdb" stroke-width="7" d="M972 419H317v300h655zM972 1023H317V724h655zM972 419l164 300-164 302zM317 419L153 719l164 302z"/>
  <path fill="none" stroke="#dbdbdb" stroke-width="7" d="M972 418H317v300h655zM972 1022H317V723h655zM972 418l164 300-164 302zM317 418L153 718l164 302z"/>
  <path fill="none" stroke="#a9a9a9" stroke-width="7" d="M971 418H316v300h655zM971 1022H316V723h655zM971 418l164 300-164 302zM316 418L152 718l164 302z"/>
  <path fill="none" stroke="#a9a9a9" stroke-width="7" d="M971 417H316v300h655zM971 1021H316V722h655zM971 417l164 300-164 302zM316 417L152 717l164 302z"/>
  <path fill="orange" stroke="#000" stroke-width="7" d="M970 417H315v300h655z"/>
  <path fill="#bebebe" stroke="#000" stroke-width="7" d="M970 1021H315V722h655z"/>
  <path fill="#fff" stroke="#000" stroke-width="7" d="M970 417l164 300-164 302z"/>
  <path fill="red" stroke="#000" stroke-width="7" d="M315 417L151 717l164 302z"/>
  <text transform="translate(385 546)" textLength="516" font-family="Arial" font-size="26" baseline-shift="-25">
    Sozialpädagogisch betreutes Wohnen-31800
  </text>
  <text transform="translate(596 460)" textLength="94" font-family="Arial" font-size="26" baseline-shift="-25">
    § 1/2 1a
  </text>
  <text transform="translate(333 739)" textLength="620" font-family="Arial" font-size="26" baseline-shift="-25">
    Wohnungen ode Wohnräume, die von einer karitativen
  </text>
  <text transform="translate(396 772)" textLength="494" font-family="Arial" font-size="26" baseline-shift="-25">
    oder humanitären Organisation im Rahmen
  </text>
  <text transform="translate(318 804)" textLength="649" font-family="Arial" font-size="26" baseline-shift="-25">
    sozialpädagogisch betreuten Wohnens vermietet werden
  </text>
</svg>
