<?xml version="1.0" encoding="UTF-8" standalone="no"?>
<svg width="6993.0px" height="5126.0px" version="1.1" xmlns="http://www.w3.org/2000/svg" xmlns:xlink="http://www.w3.org/1999/xlink">
<g>
<rect x="0.0px" y="0.0px" width="6993.0px" height="5126.0px" rx="0.0px" ry="0.0px" style="fill:rgb(255,255,255);"/>
<polygon points=" 3933.0,588.0 2648.0,588.0 2648.0,1041.0 3933.0,1041.0 " style="fill:none; stroke:rgb(219,219,219); stroke-width:7.0px;"/>
<polygon points=" 3933.0,587.0 2648.0,587.0 2648.0,1040.0 3933.0,1040.0 " style="fill:none; stroke:rgb(219,219,219); stroke-width:7.0px;"/>
<polygon points=" 3932.0,587.0 2647.0,587.0 2647.0,1040.0 3932.0,1040.0 " style="fill:none; stroke:rgb(169,169,169); stroke-width:7.0px;"/>
<polygon points=" 3932.0,586.0 2647.0,586.0 2647.0,1039.0 3932.0,1039.0 " style="fill:none; stroke:rgb(169,169,169); stroke-width:7.0px;"/>
<polygon points=" 3931.0,586.0 2646.0,586.0 2646.0,1039.0 3931.0,1039.0 " style="fill:rgb(255,165,0); stroke:rgb(0,0,0); stroke-width:7.0px;"/>
<text transform="translate(3198.0,699.0), rotate(-0.0)" x="0px" y="0px" textLength="180.0px"
 style="font-family:Arial; font-size:26.0px; fill:rgb(0,0,0); stroke:none; baseline-shift:-25.0px; ">
   Mietzinsbildung
</text>
<ellipse cx="5556.0px" cy="2230.0px" rx="245.5px" ry="207.5px" style="fill:rgb(255,165,0); stroke:rgb(0,0,0); stroke-width:7.0px;"/>
<text transform="translate(5343.0,2210.0), rotate(-0.0)" x="0px" y="0px" textLength="426.0px"
 style="font-family:Arial; font-size:26.0px; fill:rgb(0,0,0); stroke:none; baseline-shift:-25.0px; ">
   Bei Geschäftslokale kommen andere
</text>
<text transform="translate(5375.0,2242.0), rotate(-0.0)" x="0px" y="0px" textLength="361.0px"
 style="font-family:Arial; font-size:26.0px; fill:rgb(0,0,0); stroke:none; baseline-shift:-25.0px; ">
   Rechtsvorschriften zur Auswahl
</text>
<polygon points=" 3617.0,3064.0 2963.0,3064.0 2963.0,3365.0 3617.0,3365.0 " style="fill:none; stroke:rgb(219,219,219); stroke-width:7.0px;"/>
<polygon points=" 3617.0,3669.0 2963.0,3669.0 2963.0,3370.0 3617.0,3370.0 " style="fill:none; stroke:rgb(219,219,219); stroke-width:7.0px;"/>
<polygon points=" 3617.0,3064.0 3782.0,3365.0 3617.0,3667.0 " style="fill:none; stroke:rgb(219,219,219); stroke-width:7.0px;"/>
<polygon points=" 2963.0,3064.0 2799.0,3365.0 2963.0,3667.0 " style="fill:none; stroke:rgb(219,219,219); stroke-width:7.0px;"/>
<polygon points=" 3617.0,3063.0 2963.0,3063.0 2963.0,3364.0 3617.0,3364.0 " style="fill:none; stroke:rgb(219,219,219); stroke-width:7.0px;"/>
<polygon points=" 3617.0,3668.0 2963.0,3668.0 2963.0,3369.0 3617.0,3369.0 " style="fill:none; stroke:rgb(219,219,219); stroke-width:7.0px;"/>
<polygon points=" 3617.0,3063.0 3782.0,3364.0 3617.0,3666.0 " style="fill:none; stroke:rgb(219,219,219); stroke-width:7.0px;"/>
<polygon points=" 2963.0,3063.0 2799.0,3364.0 2963.0,3666.0 " style="fill:none; stroke:rgb(219,219,219); stroke-width:7.0px;"/>
<polygon points=" 3616.0,3063.0 2962.0,3063.0 2962.0,3364.0 3616.0,3364.0 " style="fill:none; stroke:rgb(169,169,169); stroke-width:7.0px;"/>
<polygon points=" 3616.0,3668.0 2962.0,3668.0 2962.0,3369.0 3616.0,3369.0 " style="fill:none; stroke:rgb(169,169,169); stroke-width:7.0px;"/>
<polygon points=" 3616.0,3063.0 3781.0,3364.0 3616.0,3666.0 " style="fill:none; stroke:rgb(169,169,169); stroke-width:7.0px;"/>
<polygon points=" 2962.0,3063.0 2798.0,3364.0 2962.0,3666.0 " style="fill:none; stroke:rgb(169,169,169); stroke-width:7.0px;"/>
<polygon points=" 3616.0,3062.0 2962.0,3062.0 2962.0,3363.0 3616.0,3363.0 " style="fill:none; stroke:rgb(169,169,169); stroke-width:7.0px;"/>
<polygon points=" 3616.0,3667.0 2962.0,3667.0 2962.0,3368.0 3616.0,3368.0 " style="fill:none; stroke:rgb(169,169,169); stroke-width:7.0px;"/>
<polygon points=" 3616.0,3062.0 3781.0,3363.0 3616.0,3665.0 " style="fill:none; stroke:rgb(169,169,169); stroke-width:7.0px;"/>
<polygon points=" 2962.0,3062.0 2798.0,3363.0 2962.0,3665.0 " style="fill:none; stroke:rgb(169,169,169); stroke-width:7.0px;"/>
<polygon points=" 3615.0,3062.0 2961.0,3062.0 2961.0,3363.0 3615.0,3363.0 " style="fill:rgb(255,165,0); stroke:rgb(0,0,0); stroke-width:7.0px;"/>
<polygon points=" 3615.0,3667.0 2961.0,3667.0 2961.0,3368.0 3615.0,3368.0 " style="fill:rgb(190,190,190); stroke:rgb(0,0,0); stroke-width:7.0px;"/>
<polygon points=" 3615.0,3062.0 3780.0,3363.0 3615.0,3665.0 " style="fill:rgb(255,255,255); stroke:rgb(0,0,0); stroke-width:7.0px;"/>
<polygon points=" 2961.0,3062.0 2797.0,3363.0 2961.0,3665.0 " style="fill:rgb(255,0,0); stroke:rgb(0,0,0); stroke-width:7.0px;"/>
<text transform="translate(3070.0,3191.0), rotate(-0.0)" x="0px" y="0px" textLength="438.0px"
 style="font-family:Arial; font-size:26.0px; fill:rgb(0,0,0); stroke:none; baseline-shift:-25.0px; ">
   Sozialpädagogisch betreutes Wohnen
</text>
<text transform="translate(3241.0,3105.0), rotate(-0.0)" x="0px" y="0px" textLength="94.0px"
 style="font-family:Arial; font-size:26.0px; fill:rgb(0,0,0); stroke:none; baseline-shift:-25.0px; ">
   § 1/2 1a
</text>
<text transform="translate(2978.0,3385.0), rotate(-0.0)" x="0px" y="0px" textLength="620.0px"
 style="font-family:Arial; font-size:26.0px; fill:rgb(0,0,0); stroke:none; baseline-shift:-25.0px; ">
   Wohnungen ode Wohnräume, die von einer karitativen
</text>
<text transform="translate(3042.0,3417.0), rotate(-0.0)" x="0px" y="0px" textLength="494.0px"
 style="font-family:Arial; font-size:26.0px; fill:rgb(0,0,0); stroke:none; baseline-shift:-25.0px; ">
   oder humanitären Organisation im Rahmen
</text>
<text transform="translate(2964.0,3450.0), rotate(-0.0)" x="0px" y="0px" textLength="649.0px"
 style="font-family:Arial; font-size:26.0px; fill:rgb(0,0,0); stroke:none; baseline-shift:-25.0px; ">
   sozialpädagogisch betreuten Wohnens vermietet werden
</text>
<ellipse cx="3288.0px" cy="1587.0px" rx="434.5px" ry="226.5px" style="fill:rgb(255,165,0); stroke:rgb(0,0,0); stroke-width:7.0px;"/>
<text transform="translate(3154.0,1565.0), rotate(-0.0)" x="0px" y="0px" textLength="268.0px"
 style="font-family:Arial; font-size:26.0px; fill:rgb(0,0,0); stroke:none; baseline-shift:-25.0px; ">
   Beginn Mietzinsbildung
</text>
<text transform="translate(3226.0,1597.0), rotate(-0.0)" x="0px" y="0px" textLength="124.0px"
 style="font-family:Arial; font-size:26.0px; fill:rgb(0,0,0); stroke:none; baseline-shift:-25.0px; ">
   nach MRG
</text>
<polygon points=" 3706.0,2270.0 3540.0,2043.0 3041.0,2043.0 2874.0,2270.0 3041.0,2496.0 3373.0,2496.0 3540.0,2496.0 " style="fill:none; stroke:rgb(219,219,219); stroke-width:7.0px;"/>
<polygon points=" 3706.0,2269.0 3540.0,2042.0 3041.0,2042.0 2874.0,2269.0 3041.0,2495.0 3373.0,2495.0 3540.0,2495.0 " style="fill:none; stroke:rgb(219,219,219); stroke-width:7.0px;"/>
<polygon points=" 3705.0,2269.0 3539.0,2042.0 3040.0,2042.0 2873.0,2269.0 3040.0,2495.0 3372.0,2495.0 3539.0,2495.0 " style="fill:none; stroke:rgb(169,169,169); stroke-width:7.0px;"/>
<polygon points=" 3705.0,2268.0 3539.0,2041.0 3040.0,2041.0 2873.0,2268.0 3040.0,2494.0 3372.0,2494.0 3539.0,2494.0 " style="fill:none; stroke:rgb(169,169,169); stroke-width:7.0px;"/>
<polygon points=" 3704.0,2268.0 3538.0,2041.0 3039.0,2041.0 2872.0,2268.0 3039.0,2494.0 3371.0,2494.0 3538.0,2494.0 " style="fill:rgb(255,165,0); stroke:rgb(0,0,0); stroke-width:7.0px;"/>
<text transform="translate(3234.0,2245.0), rotate(-0.0)" x="0px" y="0px" textLength="110.0px"
 style="font-family:Arial; font-size:26.0px; fill:rgb(0,0,0); stroke:none; baseline-shift:-25.0px; ">
   Wohnung
</text>
<polygon points=" 3617.0,3896.0 2963.0,3896.0 2963.0,4197.0 3617.0,4197.0 " style="fill:none; stroke:rgb(219,219,219); stroke-width:7.0px;"/>
<polygon points=" 3617.0,4500.0 2963.0,4500.0 2963.0,4201.0 3617.0,4201.0 " style="fill:none; stroke:rgb(219,219,219); stroke-width:7.0px;"/>
<polygon points=" 3617.0,3896.0 3782.0,4197.0 3617.0,4498.0 " style="fill:none; stroke:rgb(219,219,219); stroke-width:7.0px;"/>
<polygon points=" 2963.0,3896.0 2799.0,4197.0 2963.0,4498.0 " style="fill:none; stroke:rgb(219,219,219); stroke-width:7.0px;"/>
<polygon points=" 3617.0,3895.0 2963.0,3895.0 2963.0,4196.0 3617.0,4196.0 " style="fill:none; stroke:rgb(219,219,219); stroke-width:7.0px;"/>
<polygon points=" 3617.0,4499.0 2963.0,4499.0 2963.0,4200.0 3617.0,4200.0 " style="fill:none; stroke:rgb(219,219,219); stroke-width:7.0px;"/>
<polygon points=" 3617.0,3895.0 3782.0,4196.0 3617.0,4497.0 " style="fill:none; stroke:rgb(219,219,219); stroke-width:7.0px;"/>
<polygon points=" 2963.0,3895.0 2799.0,4196.0 2963.0,4497.0 " style="fill:none; stroke:rgb(219,219,219); stroke-width:7.0px;"/>
<polygon points=" 3616.0,3895.0 2962.0,3895.0 2962.0,4196.0 3616.0,4196.0 " style="fill:none; stroke:rgb(169,169,169); stroke-width:7.0px;"/>
<polygon points=" 3616.0,4499.0 2962.0,4499.0 2962.0,4200.0 3616.0,4200.0 " style="fill:none; stroke:rgb(169,169,169); stroke-width:7.0px;"/>
<polygon points=" 3616.0,3895.0 3781.0,4196.0 3616.0,4497.0 " style="fill:none; stroke:rgb(169,169,169); stroke-width:7.0px;"/>
<polygon points=" 2962.0,3895.0 2798.0,4196.0 2962.0,4497.0 " style="fill:none; stroke:rgb(169,169,169); stroke-width:7.0px;"/>
<polygon points=" 3616.0,3894.0 2962.0,3894.0 2962.0,4195.0 3616.0,4195.0 " style="fill:none; stroke:rgb(169,169,169); stroke-width:7.0px;"/>
<polygon points=" 3616.0,4498.0 2962.0,4498.0 2962.0,4199.0 3616.0,4199.0 " style="fill:none; stroke:rgb(169,169,169); stroke-width:7.0px;"/>
<polygon points=" 3616.0,3894.0 3781.0,4195.0 3616.0,4496.0 " style="fill:none; stroke:rgb(169,169,169); stroke-width:7.0px;"/>
<polygon points=" 2962.0,3894.0 2798.0,4195.0 2962.0,4496.0 " style="fill:none; stroke:rgb(169,169,169); stroke-width:7.0px;"/>
<polygon points=" 3615.0,3894.0 2961.0,3894.0 2961.0,4195.0 3615.0,4195.0 " style="fill:rgb(255,165,0); stroke:rgb(0,0,0); stroke-width:7.0px;"/>
<polygon points=" 3615.0,4498.0 2961.0,4498.0 2961.0,4199.0 3615.0,4199.0 " style="fill:rgb(190,190,190); stroke:rgb(0,0,0); stroke-width:7.0px;"/>
<polygon points=" 3615.0,3894.0 3780.0,4195.0 3615.0,4496.0 " style="fill:rgb(255,255,255); stroke:rgb(0,0,0); stroke-width:7.0px;"/>
<polygon points=" 2961.0,3894.0 2797.0,4195.0 2961.0,4496.0 " style="fill:rgb(255,0,0); stroke:rgb(0,0,0); stroke-width:7.0px;"/>
<text transform="translate(3098.0,4023.0), rotate(-0.0)" x="0px" y="0px" textLength="382.0px"
 style="font-family:Arial; font-size:26.0px; fill:rgb(0,0,0); stroke:none; baseline-shift:-25.0px; ">
   Dienst-, Natural-, Werkswohnung
</text>
<text transform="translate(3249.0,3937.0), rotate(-0.0)" x="0px" y="0px" textLength="79.0px"
 style="font-family:Arial; font-size:26.0px; fill:rgb(0,0,0); stroke:none; baseline-shift:-25.0px; ">
   § 1/2/2
</text>
<text transform="translate(2984.0,4216.0), rotate(-0.0)" x="0px" y="0px" textLength="609.0px"
 style="font-family:Arial; font-size:26.0px; fill:rgb(0,0,0); stroke:none; baseline-shift:-25.0px; ">
   Wohnungen, die auf Grund eines Dienstverhältnisses
</text>
<text transform="translate(2969.0,4249.0), rotate(-0.0)" x="0px" y="0px" textLength="638.0px"
 style="font-family:Arial; font-size:26.0px; fill:rgb(0,0,0); stroke:none; baseline-shift:-25.0px; ">
   oder im Zusammenhang mit einem solchen als Dienst,-
</text>
<text transform="translate(3005.0,4281.0), rotate(-0.0)" x="0px" y="0px" textLength="565.0px"
 style="font-family:Arial; font-size:26.0px; fill:rgb(0,0,0); stroke:none; baseline-shift:-25.0px; ">
   Natural- oder Werkswohnung überlassen werden.
</text>
<path d="M 3288.0 1051.0 L 3288.0 1349.0" style="fill:none; stroke:rgb(0,0,0); stroke-width:15.0px;"/>
<polygon points=" 3280.0,1334.0 3288.0,1349.0 3297.0,1334.0 " style="fill:rgb(0,0,0); stroke:rgb(0,0,0); stroke-width:15.0px;"/>
<path d="M 3288.0 1826.0 L 3288.0 2030.0" style="fill:none; stroke:rgb(0,0,0); stroke-width:15.0px;"/>
<polygon points=" 3280.0,2014.0 3288.0,2030.0 3297.0,2014.0 " style="fill:rgb(0,0,0); stroke:rgb(0,0,0); stroke-width:15.0px;"/>
<path d="M 3715.0 2261.0 L 5299.0 2234.0" style="fill:none; stroke:rgb(0,0,0); stroke-width:15.0px;"/>
<polygon points=" 5284.0,2243.0 5299.0,2234.0 5284.0,2226.0 " style="fill:rgb(0,0,0); stroke:rgb(0,0,0); stroke-width:15.0px;"/>
<text transform="translate(5222.0,2160.0), rotate(-0.0)" x="0px" y="0px" textLength="51.0px"
 style="font-family:Arial; font-size:26.0px; fill:rgb(0,0,0); stroke:none; baseline-shift:-25.0px; ">
   Nein
</text>
<path d="M 3288.0 2506.0 L 3288.0 3051.0" style="fill:none; stroke:rgb(0,0,0); stroke-width:15.0px;"/>
<polygon points=" 3280.0,3036.0 3288.0,3051.0 3297.0,3036.0 " style="fill:rgb(0,0,0); stroke:rgb(0,0,0); stroke-width:15.0px;"/>
<text transform="translate(3364.0,2975.0), rotate(-0.0)" x="0px" y="0px" textLength="26.0px"
 style="font-family:Arial; font-size:26.0px; fill:rgb(0,0,0); stroke:none; baseline-shift:-25.0px; ">
   Ja
</text>
<path d="M 3791.0 3402.0 L 4040.0 3402.0 C 4043.0 3402.0 4044.0 3404.0 4044.0 3405.0 L 4044.0 3776.0 C 4044.0 3778.0 4043.0 3780.0 4040.0 3780.0 L 3254.0 3780.0 C 3253.0 3780.0 3250.0 3782.0 3250.0 3783.0 L 3250.0 3882.0" style="fill:none; stroke:rgb(0,0,0); stroke-width:15.0px;"/>
<polygon points=" 3242.0,3867.0 3250.0,3882.0 3259.0,3867.0 " style="fill:rgb(0,0,0); stroke:rgb(0,0,0); stroke-width:15.0px;"/>
<text transform="translate(3326.0,3807.0), rotate(-0.0)" x="0px" y="0px" textLength="51.0px"
 style="font-family:Arial; font-size:26.0px; fill:rgb(0,0,0); stroke:none; baseline-shift:-25.0px; ">
   Nein
</text>
<polygon points=" 1917.0,910.0 1262.0,910.0 1262.0,1211.0 1917.0,1211.0 " style="fill:none; stroke:rgb(219,219,219); stroke-width:7.0px;"/>
<polygon points=" 1917.0,1515.0 1262.0,1515.0 1262.0,1215.0 1917.0,1215.0 " style="fill:none; stroke:rgb(219,219,219); stroke-width:7.0px;"/>
<polygon points=" 1917.0,910.0 2081.0,1211.0 1917.0,1512.0 " style="fill:none; stroke:rgb(219,219,219); stroke-width:7.0px;"/>
<polygon points=" 1262.0,910.0 1098.0,1211.0 1262.0,1512.0 " style="fill:none; stroke:rgb(219,219,219); stroke-width:7.0px;"/>
<polygon points=" 1917.0,909.0 1262.0,909.0 1262.0,1210.0 1917.0,1210.0 " style="fill:none; stroke:rgb(219,219,219); stroke-width:7.0px;"/>
<polygon points=" 1917.0,1514.0 1262.0,1514.0 1262.0,1214.0 1917.0,1214.0 " style="fill:none; stroke:rgb(219,219,219); stroke-width:7.0px;"/>
<polygon points=" 1917.0,909.0 2081.0,1210.0 1917.0,1511.0 " style="fill:none; stroke:rgb(219,219,219); stroke-width:7.0px;"/>
<polygon points=" 1262.0,909.0 1098.0,1210.0 1262.0,1511.0 " style="fill:none; stroke:rgb(219,219,219); stroke-width:7.0px;"/>
<polygon points=" 1916.0,909.0 1261.0,909.0 1261.0,1210.0 1916.0,1210.0 " style="fill:none; stroke:rgb(169,169,169); stroke-width:7.0px;"/>
<polygon points=" 1916.0,1514.0 1261.0,1514.0 1261.0,1214.0 1916.0,1214.0 " style="fill:none; stroke:rgb(169,169,169); stroke-width:7.0px;"/>
<polygon points=" 1916.0,909.0 2080.0,1210.0 1916.0,1511.0 " style="fill:none; stroke:rgb(169,169,169); stroke-width:7.0px;"/>
<polygon points=" 1261.0,909.0 1097.0,1210.0 1261.0,1511.0 " style="fill:none; stroke:rgb(169,169,169); stroke-width:7.0px;"/>
<polygon points=" 1916.0,908.0 1261.0,908.0 1261.0,1209.0 1916.0,1209.0 " style="fill:none; stroke:rgb(169,169,169); stroke-width:7.0px;"/>
<polygon points=" 1916.0,1513.0 1261.0,1513.0 1261.0,1213.0 1916.0,1213.0 " style="fill:none; stroke:rgb(169,169,169); stroke-width:7.0px;"/>
<polygon points=" 1916.0,908.0 2080.0,1209.0 1916.0,1510.0 " style="fill:none; stroke:rgb(169,169,169); stroke-width:7.0px;"/>
<polygon points=" 1261.0,908.0 1097.0,1209.0 1261.0,1510.0 " style="fill:none; stroke:rgb(169,169,169); stroke-width:7.0px;"/>
<polygon points=" 1915.0,908.0 1260.0,908.0 1260.0,1209.0 1915.0,1209.0 " style="fill:rgb(255,165,0); stroke:rgb(0,0,0); stroke-width:7.0px;"/>
<polygon points=" 1915.0,1513.0 1260.0,1513.0 1260.0,1213.0 1915.0,1213.0 " style="fill:rgb(190,190,190); stroke:rgb(0,0,0); stroke-width:7.0px;"/>
<polygon points=" 1915.0,908.0 2079.0,1209.0 1915.0,1510.0 " style="fill:rgb(255,255,255); stroke:rgb(0,0,0); stroke-width:7.0px;"/>
<polygon points=" 1260.0,908.0 1096.0,1209.0 1260.0,1510.0 " style="fill:rgb(255,0,0); stroke:rgb(0,0,0); stroke-width:7.0px;"/>
<text transform="translate(1330.0,1037.0), rotate(-0.0)" x="0px" y="0px" textLength="516.0px"
 style="font-family:Arial; font-size:26.0px; fill:rgb(0,0,0); stroke:none; baseline-shift:-25.0px; ">
   Sozialpädagogisch betreutes Wohnen-31800
</text>
<text transform="translate(1541.0,951.0), rotate(-0.0)" x="0px" y="0px" textLength="94.0px"
 style="font-family:Arial; font-size:26.0px; fill:rgb(0,0,0); stroke:none; baseline-shift:-25.0px; ">
   § 1/2 1a
</text>
<text transform="translate(1277.0,1231.0), rotate(-0.0)" x="0px" y="0px" textLength="620.0px"
 style="font-family:Arial; font-size:26.0px; fill:rgb(0,0,0); stroke:none; baseline-shift:-25.0px; ">
   Wohnungen ode Wohnräume, die von einer karitativen
</text>
<text transform="translate(1341.0,1263.0), rotate(-0.0)" x="0px" y="0px" textLength="494.0px"
 style="font-family:Arial; font-size:26.0px; fill:rgb(0,0,0); stroke:none; baseline-shift:-25.0px; ">
   oder humanitären Organisation im Rahmen
</text>
<text transform="translate(1263.0,1296.0), rotate(-0.0)" x="0px" y="0px" textLength="649.0px"
 style="font-family:Arial; font-size:26.0px; fill:rgb(0,0,0); stroke:none; baseline-shift:-25.0px; ">
   sozialpädagogisch betreuten Wohnens vermietet werden
</text>
</g>
</svg>
