<svg xmlns="http://www.w3.org/2000/svg" width="3498" height="7967"><style>.a{fill:none;stroke-width:3px;stroke:rgb(219,219,219);}.b{fill:none;stroke-width:3px;stroke:rgb(169,169,169);}.c{fill:rgb(255,165,0);stroke-width:3px;stroke:rgb(0,0,0);}.d{baseline-shift:-10px;fill:rgb(0,0,0);font-family:Arial;font-size:10px;}.e{fill:rgb(190,190,190);stroke-width:3px;stroke:rgb(0,0,0);}.f{fill:rgb(255,255,255);stroke-width:3px;stroke:rgb(0,0,0);}.g{fill:rgb(255,0,0);stroke-width:3px;stroke:rgb(0,0,0);}.h{fill:none;stroke-width:7px;stroke:rgb(0,0,0);}.i{fill:rgb(0,0,0);stroke-width:7px;stroke:rgb(0,0,0);}</style><rect width="3498" height="7967" fill="rgb(255,255,255)"/><polygon points=" 1911 68 1268 68 1268 295 1911 295 " class="a"/><polygon points=" 1911 67 1268 67 1268 294 1911 294 " class="a"/><polygon points=" 1910 67 1267 67 1267 294 1910 294 " class="b"/><polygon points=" 1910 66 1267 66 1267 293 1910 293 " class="b"/><polygon points=" 1909 66 1266 66 1266 293 1909 293 " class="c"/><text transform="translate(1542 123)rotate(0)" textLength="90.0px" class="d">  
   Mietzinsbildung
</text><text transform="translate(2615 878)rotate(0)" textLength="213.0px" class="d">  
   Bei Geschäftslokale kommen andere
</text><text transform="translate(2631 894)rotate(0)" textLength="181.0px" class="d">  
   Rechtsvorschriften zur Auswahl
</text><polygon points=" 789 1439 462 1439 462 1589 789 1589 " class="a"/><polygon points=" 789 1741 462 1741 462 1591 789 1591 " class="a"/><polygon points=" 789 1439 871 1589 789 1740 " class="a"/><polygon points=" 462 1439 380 1589 462 1740 " class="a"/><polygon points=" 789 1438 462 1438 462 1588 789 1588 " class="a"/><polygon points=" 789 1740 462 1740 462 1590 789 1590 " class="a"/><polygon points=" 789 1438 871 1588 789 1739 " class="a"/><polygon points=" 462 1438 380 1588 462 1739 " class="a"/><polygon points=" 788 1438 461 1438 461 1588 788 1588 " class="b"/><polygon points=" 788 1740 461 1740 461 1590 788 1590 " class="b"/><polygon points=" 788 1438 870 1588 788 1739 " class="b"/><polygon points=" 461 1438 379 1588 461 1739 " class="b"/><polygon points=" 788 1437 461 1437 461 1587 788 1587 " class="b"/><polygon points=" 788 1739 461 1739 461 1589 788 1589 " class="b"/><polygon points=" 788 1437 870 1587 788 1738 " class="b"/><polygon points=" 461 1437 379 1587 461 1738 " class="b"/><polygon points=" 787 1437 460 1437 460 1587 787 1587 " class="c"/><polygon points=" 787 1739 460 1739 460 1589 787 1589 " class="e"/><polygon points=" 787 1437 869 1587 787 1738 " class="f"/><polygon points=" 460 1437 378 1587 460 1738 " class="g"/><text transform="translate(514 1501)rotate(0)" textLength="219.0px" class="d">  
   Sozialpädagogisch betreutes Wohnen
</text><text transform="translate(600 1458)rotate(0)" textLength="47.0px" class="d">  
   § 1&#x2F;2 1a
</text><text transform="translate(469 1598)rotate(0)" textLength="310.0px" class="d">  
   Wohnungen ode Wohnräume, die von einer karitativen
</text><text transform="translate(500 1614)rotate(0)" textLength="247.0px" class="d">  
   oder humanitären Organisation im Rahmen
</text><text transform="translate(461 1630)rotate(0)" textLength="325.0px" class="d">  
   sozialpädagogisch betreuten Wohnens vermietet werden
</text><text transform="translate(1521 556)rotate(0)" textLength="134.0px" class="d">  
   Beginn Mietzinsbildung
</text><text transform="translate(1556 572)rotate(0)" textLength="62.0px" class="d">  
   nach MRG
</text><polygon points=" 1797 890 1714 777 1465 777 1382 890 1465 1004 1631 1004 1714 1004 " class="a"/><polygon points=" 1797 889 1714 776 1465 776 1382 889 1465 1003 1631 1003 1714 1003 " class="a"/><polygon points=" 1796 889 1713 776 1464 776 1381 889 1464 1003 1630 1003 1713 1003 " class="b"/><polygon points=" 1796 888 1713 775 1464 775 1381 888 1464 1002 1630 1002 1713 1002 " class="b"/><polygon points=" 1795 888 1712 775 1463 775 1380 888 1463 1002 1629 1002 1712 1002 " class="c"/><text transform="translate(1560 877)rotate(0)" textLength="55.0px" class="d">  
   Wohnung
</text><polygon points=" 1778 1420 1438 1420 1438 1570 1778 1570 " class="a"/><polygon points=" 1778 1722 1438 1722 1438 1572 1778 1572 " class="a"/><polygon points=" 1778 1420 1863 1570 1778 1721 " class="a"/><polygon points=" 1438 1420 1353 1570 1438 1721 " class="a"/><polygon points=" 1778 1419 1438 1419 1438 1569 1778 1569 " class="a"/><polygon points=" 1778 1721 1438 1721 1438 1571 1778 1571 " class="a"/><polygon points=" 1778 1419 1863 1569 1778 1720 " class="a"/><polygon points=" 1438 1419 1353 1569 1438 1720 " class="a"/><polygon points=" 1777 1419 1437 1419 1437 1569 1777 1569 " class="b"/><polygon points=" 1777 1721 1437 1721 1437 1571 1777 1571 " class="b"/><polygon points=" 1777 1419 1862 1569 1777 1720 " class="b"/><polygon points=" 1437 1419 1352 1569 1437 1720 " class="b"/><polygon points=" 1777 1418 1437 1418 1437 1568 1777 1568 " class="b"/><polygon points=" 1777 1720 1437 1720 1437 1570 1777 1570 " class="b"/><polygon points=" 1777 1418 1862 1568 1777 1719 " class="b"/><polygon points=" 1437 1418 1352 1568 1437 1719 " class="b"/><polygon points=" 1776 1418 1436 1418 1436 1568 1776 1568 " class="c"/><polygon points=" 1776 1720 1436 1720 1436 1570 1776 1570 " class="e"/><polygon points=" 1776 1418 1861 1568 1776 1719 " class="f"/><polygon points=" 1436 1418 1351 1568 1436 1719 " class="g"/><text transform="translate(1533 1482)rotate(0)" textLength="148.0px" class="d">  
   Begünstigte Rückzahlung
</text><text transform="translate(1560 1439)rotate(0)" textLength="93.0px" class="d">  
   § 6&#x2F;4 RBG 1987
</text><text transform="translate(1474 1579)rotate(0)" textLength="264.0px" class="d">  
   Bei Nwuabschclüssen von Mietverträgen nach
</text><text transform="translate(1480 1595)rotate(0)" textLength="253.0px" class="d">  
   begünstigter Teil- oder Volltilgung(nach dem
</text><text transform="translate(1491 1612)rotate(0)" textLength="230.0px" class="d">  
   Rückzahlungsvergüterungsgesetz 1987)
</text><polygon points=" 2704 1439 2364 1439 2364 1589 2704 1589 " class="a"/><polygon points=" 2704 1741 2364 1741 2364 1591 2704 1591 " class="a"/><polygon points=" 2704 1439 2789 1589 2704 1740 " class="a"/><polygon points=" 2364 1439 2279 1589 2364 1740 " class="a"/><polygon points=" 2704 1438 2364 1438 2364 1588 2704 1588 " class="a"/><polygon points=" 2704 1740 2364 1740 2364 1590 2704 1590 " class="a"/><polygon points=" 2704 1438 2789 1588 2704 1739 " class="a"/><polygon points=" 2364 1438 2279 1588 2364 1739 " class="a"/><polygon points=" 2703 1438 2363 1438 2363 1588 2703 1588 " class="b"/><polygon points=" 2703 1740 2363 1740 2363 1590 2703 1590 " class="b"/><polygon points=" 2703 1438 2788 1588 2703 1739 " class="b"/><polygon points=" 2363 1438 2278 1588 2363 1739 " class="b"/><polygon points=" 2703 1437 2363 1437 2363 1587 2703 1587 " class="b"/><polygon points=" 2703 1739 2363 1739 2363 1589 2703 1589 " class="b"/><polygon points=" 2703 1437 2788 1587 2703 1738 " class="b"/><polygon points=" 2363 1437 2278 1587 2363 1738 " class="b"/><polygon points=" 2702 1437 2362 1437 2362 1587 2702 1587 " class="c"/><polygon points=" 2702 1739 2362 1739 2362 1589 2702 1589 " class="e"/><polygon points=" 2702 1437 2787 1587 2702 1738 " class="f"/><polygon points=" 2362 1437 2277 1587 2362 1738 " class="g"/><text transform="translate(2499 1501)rotate(0)" textLength="68.0px" class="d">  
   Kategorie C
</text><text transform="translate(2505 1458)rotate(0)" textLength="54.0px" class="d">  
   $ 15a&#x2F;1&#x2F;3
</text><text transform="translate(2366 1598)rotate(0)" textLength="334.0px" class="d">  
   Wenn sie in brauchbarem Zustand ist und zumindest über
</text><text transform="translate(2374 1614)rotate(0)" textLength="316.0px" class="d">  
   eine Wasserentnahmestelle und ein Klosett im Inneren
</text><text transform="translate(2512 1630)rotate(0)" textLength="41.0px" class="d">  
   verfügt.
</text><polygon points=" 789 1854 462 1854 462 2005 789 2005 " class="a"/><polygon points=" 789 2157 462 2157 462 2007 789 2007 " class="a"/><polygon points=" 789 1854 871 2005 789 2156 " class="a"/><polygon points=" 462 1854 380 2005 462 2156 " class="a"/><polygon points=" 789 1853 462 1853 462 2004 789 2004 " class="a"/><polygon points=" 789 2156 462 2156 462 2006 789 2006 " class="a"/><polygon points=" 789 1853 871 2004 789 2155 " class="a"/><polygon points=" 462 1853 380 2004 462 2155 " class="a"/><polygon points=" 788 1853 461 1853 461 2004 788 2004 " class="b"/><polygon points=" 788 2156 461 2156 461 2006 788 2006 " class="b"/><polygon points=" 788 1853 870 2004 788 2155 " class="b"/><polygon points=" 461 1853 379 2004 461 2155 " class="b"/><polygon points=" 788 1852 461 1852 461 2003 788 2003 " class="b"/><polygon points=" 788 2155 461 2155 461 2005 788 2005 " class="b"/><polygon points=" 788 1852 870 2003 788 2154 " class="b"/><polygon points=" 461 1852 379 2003 461 2154 " class="b"/><polygon points=" 787 1852 460 1852 460 2003 787 2003 " class="c"/><polygon points=" 787 2155 460 2155 460 2005 787 2005 " class="e"/><polygon points=" 787 1852 869 2003 787 2154 " class="f"/><polygon points=" 460 1852 378 2003 460 2154 " class="g"/><text transform="translate(528 1917)rotate(0)" textLength="191.0px" class="d">  
   Dienst-, Natural-, Werkswohnung
</text><text transform="translate(604 1874)rotate(0)" textLength="40.0px" class="d">  
   § 1&#x2F;2&#x2F;2
</text><text transform="translate(471 2014)rotate(0)" textLength="305.0px" class="d">  
   Wohnungen, die auf Grund eines Dienstverhältnisses
</text><text transform="translate(464 2030)rotate(0)" textLength="319.0px" class="d">  
   oder im Zusammenhang mit einem solchen als Dienst,-
</text><text transform="translate(482 2046)rotate(0)" textLength="283.0px" class="d">  
   Natural- oder Werkswohnung überlassen werden.
</text><polygon points=" 789 2308 462 2308 462 2458 789 2458 " class="a"/><polygon points=" 789 2610 462 2610 462 2461 789 2461 " class="a"/><polygon points=" 789 2308 871 2458 789 2609 " class="a"/><polygon points=" 462 2308 380 2458 462 2609 " class="a"/><polygon points=" 789 2307 462 2307 462 2457 789 2457 " class="a"/><polygon points=" 789 2609 462 2609 462 2460 789 2460 " class="a"/><polygon points=" 789 2307 871 2457 789 2608 " class="a"/><polygon points=" 462 2307 380 2457 462 2608 " class="a"/><polygon points=" 788 2307 461 2307 461 2457 788 2457 " class="b"/><polygon points=" 788 2609 461 2609 461 2460 788 2460 " class="b"/><polygon points=" 788 2307 870 2457 788 2608 " class="b"/><polygon points=" 461 2307 379 2457 461 2608 " class="b"/><polygon points=" 788 2306 461 2306 461 2456 788 2456 " class="b"/><polygon points=" 788 2608 461 2608 461 2459 788 2459 " class="b"/><polygon points=" 788 2306 870 2456 788 2607 " class="b"/><polygon points=" 461 2306 379 2456 461 2607 " class="b"/><polygon points=" 787 2306 460 2306 460 2456 787 2456 " class="c"/><polygon points=" 787 2608 460 2608 460 2459 787 2459 " class="e"/><polygon points=" 787 2306 869 2456 787 2607 " class="f"/><polygon points=" 460 2306 378 2456 460 2607 " class="g"/><text transform="translate(574 2371)rotate(0)" textLength="100.0px" class="d">  
   1&#x2F;2 jahre befristet
</text><text transform="translate(602 2327)rotate(0)" textLength="43.0px" class="d">  
   $1&#x2F;2&#x2F;3b
</text><text transform="translate(466 2467)rotate(0)" textLength="315.0px" class="d">  
   Mietverträge, die durch Ablauf der Zeit ohne Kündigung
</text><text transform="translate(476 2484)rotate(0)" textLength="296.0px" class="d">  
   erlöschen, sofern die ursprüngliche oder verlängerte
</text><text transform="translate(466 2500)rotate(0)" textLength="315.0px" class="d">  
   vertragsmäßige Dauer ein halbes Jahr nicht übersteigt.
</text><polygon points=" 789 2761 462 2761 462 2912 789 2912 " class="a"/><polygon points=" 789 3064 462 3064 462 2914 789 2914 " class="a"/><polygon points=" 789 2761 871 2912 789 3063 " class="a"/><polygon points=" 462 2761 380 2912 462 3063 " class="a"/><polygon points=" 789 2760 462 2760 462 2911 789 2911 " class="a"/><polygon points=" 789 3063 462 3063 462 2913 789 2913 " class="a"/><polygon points=" 789 2760 871 2911 789 3062 " class="a"/><polygon points=" 462 2760 380 2911 462 3062 " class="a"/><polygon points=" 788 2760 461 2760 461 2911 788 2911 " class="b"/><polygon points=" 788 3063 461 3063 461 2913 788 2913 " class="b"/><polygon points=" 788 2760 870 2911 788 3062 " class="b"/><polygon points=" 461 2760 379 2911 461 3062 " class="b"/><polygon points=" 788 2759 461 2759 461 2910 788 2910 " class="b"/><polygon points=" 788 3062 461 3062 461 2912 788 2912 " class="b"/><polygon points=" 788 2759 870 2910 788 3061 " class="b"/><polygon points=" 461 2759 379 2910 461 3061 " class="b"/><polygon points=" 787 2759 460 2759 460 2910 787 2910 " class="c"/><polygon points=" 787 3062 460 3062 460 2912 787 2912 " class="e"/><polygon points=" 787 2759 869 2910 787 3061 " class="f"/><polygon points=" 460 2759 378 2910 460 3061 " class="g"/><text transform="translate(569 2824)rotate(0)" textLength="110.0px" class="d">  
   Kategorie A oder B
</text><text transform="translate(600 2781)rotate(0)" textLength="47.0px" class="d">  
   § 1&#x2F;2&#x2F;3b
</text><text transform="translate(502 2921)rotate(0)" textLength="243.0px" class="d">  
   Der Mietgegenstand ist eine Wohnung der
</text><text transform="translate(465 2937)rotate(0)" textLength="318.0px" class="d">  
   Austattungskategorie A oder B (§15a Abs. 1 Z 1 und 2)
</text><polygon points=" 789 3234 462 3234 462 3384 789 3384 " class="a"/><polygon points=" 789 3536 462 3536 462 3387 789 3387 " class="a"/><polygon points=" 789 3234 871 3384 789 3535 " class="a"/><polygon points=" 462 3234 380 3384 462 3535 " class="a"/><polygon points=" 789 3233 462 3233 462 3383 789 3383 " class="a"/><polygon points=" 789 3535 462 3535 462 3386 789 3386 " class="a"/><polygon points=" 789 3233 871 3383 789 3534 " class="a"/><polygon points=" 462 3233 380 3383 462 3534 " class="a"/><polygon points=" 788 3233 461 3233 461 3383 788 3383 " class="b"/><polygon points=" 788 3535 461 3535 461 3386 788 3386 " class="b"/><polygon points=" 788 3233 870 3383 788 3534 " class="b"/><polygon points=" 461 3233 379 3383 461 3534 " class="b"/><polygon points=" 788 3232 461 3232 461 3382 788 3382 " class="b"/><polygon points=" 788 3534 461 3534 461 3385 788 3385 " class="b"/><polygon points=" 788 3232 870 3382 788 3533 " class="b"/><polygon points=" 461 3232 379 3382 461 3533 " class="b"/><polygon points=" 787 3232 460 3232 460 3382 787 3382 " class="c"/><polygon points=" 787 3534 460 3534 460 3385 787 3385 " class="e"/><polygon points=" 787 3232 869 3382 787 3533 " class="f"/><polygon points=" 460 3232 378 3382 460 3533 " class="g"/><text transform="translate(526 3297)rotate(0)" textLength="196.0px" class="d">  
   Zweitwohnung für Erwerbstätigkeit
</text><text transform="translate(600 3253)rotate(0)" textLength="47.0px" class="d">  
   § 1&#x2F;2&#x2F;3b
</text><text transform="translate(468 3393)rotate(0)" textLength="311.0px" class="d">  
   Der Mieter mietet diese Wohnung nur zum schreiftlich
</text><text transform="translate(479 3410)rotate(0)" textLength="290.0px" class="d">  
   vereinbarten Zweck der Nutzung als Zweitwohnung
</text><text transform="translate(485 3426)rotate(0)" textLength="278.0px" class="d">  
   wegen eines durch Erwerbstätigkeit veursachten
</text><text transform="translate(472 3442)rotate(0)" textLength="304.0px" class="d">  
   vorüergehenden Ortwechsel; eine Zweitwohnung liegt
</text><text transform="translate(462 3458)rotate(0)" textLength="324.0px" class="d">  
   vor, wenn daneben ein gewöhnlicher Aufenthalt im Sinne
</text><text transform="translate(568 3475)rotate(0)" textLength="112.0px" class="d">  
   des §66 JN besteht
</text><polygon points=" 789 3706 462 3706 462 3857 789 3857 " class="a"/><polygon points=" 789 4009 462 4009 462 3859 789 3859 " class="a"/><polygon points=" 789 3706 871 3857 789 4008 " class="a"/><polygon points=" 462 3706 380 3857 462 4008 " class="a"/><polygon points=" 789 3705 462 3705 462 3856 789 3856 " class="a"/><polygon points=" 789 4008 462 4008 462 3858 789 3858 " class="a"/><polygon points=" 789 3705 871 3856 789 4007 " class="a"/><polygon points=" 462 3705 380 3856 462 4007 " class="a"/><polygon points=" 788 3705 461 3705 461 3856 788 3856 " class="b"/><polygon points=" 788 4008 461 4008 461 3858 788 3858 " class="b"/><polygon points=" 788 3705 870 3856 788 4007 " class="b"/><polygon points=" 461 3705 379 3856 461 4007 " class="b"/><polygon points=" 788 3704 461 3704 461 3855 788 3855 " class="b"/><polygon points=" 788 4007 461 4007 461 3857 788 3857 " class="b"/><polygon points=" 788 3704 870 3855 788 4006 " class="b"/><polygon points=" 461 3704 379 3855 461 4006 " class="b"/><polygon points=" 787 3704 460 3704 460 3855 787 3855 " class="c"/><polygon points=" 787 4007 460 4007 460 3857 787 3857 " class="e"/><polygon points=" 787 3704 869 3855 787 4006 " class="f"/><polygon points=" 460 3704 378 3855 460 4006 " class="g"/><text transform="translate(580 3769)rotate(0)" textLength="87.0px" class="d">  
   Ferienwohnung
</text><text transform="translate(604 3726)rotate(0)" textLength="40.0px" class="d">  
   § 1&#x2F;2&#x2F;4
</text><text transform="translate(466 3866)rotate(0)" textLength="315.0px" class="d">  
   Wohnungen oder Wohnräume, die vom Mieter bloß als
</text><text transform="translate(481 3882)rotate(0)" textLength="285.0px" class="d">  
   Zweitwiohnung zu Zwecken der Erholung oder der
</text><text transform="translate(466 3898)rotate(0)" textLength="316.0px" class="d">  
   Freizeitgestatung gemietet werden; eine Zweitwohnung
</text><text transform="translate(466 3914)rotate(0)" textLength="315.0px" class="d">  
   liegt vor, wenn daneben ein gewöhnlicher Aufenthalt im
</text><text transform="translate(549 3931)rotate(0)" textLength="149.0px" class="d">  
   Sinne des §66 JN besteht
</text><polygon points=" 808 4141 481 4141 481 4291 808 4291 " class="a"/><polygon points=" 808 4443 481 4443 481 4294 808 4294 " class="a"/><polygon points=" 808 4141 890 4291 808 4442 " class="a"/><polygon points=" 481 4141 399 4291 481 4442 " class="a"/><polygon points=" 808 4140 481 4140 481 4290 808 4290 " class="a"/><polygon points=" 808 4442 481 4442 481 4293 808 4293 " class="a"/><polygon points=" 808 4140 890 4290 808 4441 " class="a"/><polygon points=" 481 4140 399 4290 481 4441 " class="a"/><polygon points=" 807 4140 480 4140 480 4290 807 4290 " class="b"/><polygon points=" 807 4442 480 4442 480 4293 807 4293 " class="b"/><polygon points=" 807 4140 889 4290 807 4441 " class="b"/><polygon points=" 480 4140 398 4290 480 4441 " class="b"/><polygon points=" 807 4139 480 4139 480 4289 807 4289 " class="b"/><polygon points=" 807 4441 480 4441 480 4292 807 4292 " class="b"/><polygon points=" 807 4139 889 4289 807 4440 " class="b"/><polygon points=" 480 4139 398 4289 480 4440 " class="b"/><polygon points=" 806 4139 479 4139 479 4289 806 4289 " class="c"/><polygon points=" 806 4441 479 4441 479 4292 806 4292 " class="e"/><polygon points=" 806 4139 888 4289 806 4440 " class="f"/><polygon points=" 479 4139 397 4289 479 4440 " class="g"/><text transform="translate(552 4204)rotate(0)" textLength="181.0px" class="d">  
   Ein- oder Zwei- Objekt - Häuser
</text><text transform="translate(623 4161)rotate(0)" textLength="40.0px" class="d">  
   § 1&#x2F;2&#x2F;5
</text><text transform="translate(485 4300)rotate(0)" textLength="316.0px" class="d">  
   Mietgegenstände in einem Gebäude mit nicht mehr als
</text><text transform="translate(537 4317)rotate(0)" textLength="212.0px" class="d">  
   zwei selbständigen Wohnungen oder
</text><text transform="translate(516 4333)rotate(0)" textLength="254.0px" class="d">  
   Geschäftsräumlichkeiten, wobei Räume, die
</text><text transform="translate(485 4349)rotate(0)" textLength="315.0px" class="d">  
   nachträglich durch einen Ausbau des Dachbodens neu
</text><text transform="translate(511 4365)rotate(0)" textLength="263.0px" class="d">  
   geschaffen wurden oder werden, nicht zählen.
</text><polygon points=" 808 4595 481 4595 481 4745 808 4745 " class="a"/><polygon points=" 808 4897 481 4897 481 4747 808 4747 " class="a"/><polygon points=" 808 4595 890 4745 808 4896 " class="a"/><polygon points=" 481 4595 399 4745 481 4896 " class="a"/><polygon points=" 808 4594 481 4594 481 4744 808 4744 " class="a"/><polygon points=" 808 4896 481 4896 481 4746 808 4746 " class="a"/><polygon points=" 808 4594 890 4744 808 4895 " class="a"/><polygon points=" 481 4594 399 4744 481 4895 " class="a"/><polygon points=" 807 4594 480 4594 480 4744 807 4744 " class="b"/><polygon points=" 807 4896 480 4896 480 4746 807 4746 " class="b"/><polygon points=" 807 4594 889 4744 807 4895 " class="b"/><polygon points=" 480 4594 398 4744 480 4895 " class="b"/><polygon points=" 807 4593 480 4593 480 4743 807 4743 " class="b"/><polygon points=" 807 4895 480 4895 480 4745 807 4745 " class="b"/><polygon points=" 807 4593 889 4743 807 4894 " class="b"/><polygon points=" 480 4593 398 4743 480 4894 " class="b"/><polygon points=" 806 4593 479 4593 479 4743 806 4743 " class="c"/><polygon points=" 806 4895 479 4895 479 4745 806 4745 " class="e"/><polygon points=" 806 4593 888 4743 806 4894 " class="f"/><polygon points=" 479 4593 397 4743 479 4894 " class="g"/><text transform="translate(529 4657)rotate(0)" textLength="228.0px" class="d">  
   Baubewilligung nach dem 30. Juni 1953
</text><text transform="translate(623 4614)rotate(0)" textLength="40.0px" class="d">  
   § 1&#x2F;4&#x2F;1
</text><text transform="translate(491 4754)rotate(0)" textLength="303.0px" class="d">  
   Mietgegenstände, die in Gebäuden gelegen sind, die
</text><text transform="translate(492 4770)rotate(0)" textLength="302.0px" class="d">  
   ohne Zuhilfenahme öffentlicher Mittel auf Grund einer
</text><text transform="translate(491 4786)rotate(0)" textLength="303.0px" class="d">  
   nach dem 30. Juni 1953 erteilten Baubewilligung neu
</text><text transform="translate(581 4803)rotate(0)" textLength="124.0px" class="d">  
   errichtet worden sind,
</text><polygon points=" 808 5029 481 5029 481 5180 808 5180 " class="a"/><polygon points=" 808 5332 481 5332 481 5182 808 5182 " class="a"/><polygon points=" 808 5029 890 5180 808 5330 " class="a"/><polygon points=" 481 5029 399 5180 481 5330 " class="a"/><polygon points=" 808 5028 481 5028 481 5179 808 5179 " class="a"/><polygon points=" 808 5331 481 5331 481 5181 808 5181 " class="a"/><polygon points=" 808 5028 890 5179 808 5329 " class="a"/><polygon points=" 481 5028 399 5179 481 5329 " class="a"/><polygon points=" 807 5028 480 5028 480 5179 807 5179 " class="b"/><polygon points=" 807 5331 480 5331 480 5181 807 5181 " class="b"/><polygon points=" 807 5028 889 5179 807 5329 " class="b"/><polygon points=" 480 5028 398 5179 480 5329 " class="b"/><polygon points=" 807 5027 480 5027 480 5178 807 5178 " class="b"/><polygon points=" 807 5330 480 5330 480 5180 807 5180 " class="b"/><polygon points=" 807 5027 889 5178 807 5328 " class="b"/><polygon points=" 480 5027 398 5178 480 5328 " class="b"/><polygon points=" 806 5027 479 5027 479 5178 806 5178 " class="c"/><polygon points=" 806 5330 479 5330 479 5180 806 5180 " class="e"/><polygon points=" 806 5027 888 5178 806 5328 " class="f"/><polygon points=" 479 5027 397 5178 479 5328 " class="g"/><text transform="translate(575 5092)rotate(0)" textLength="136.0px" class="d">  
   Ohne öffentlichen Mittel
</text><text transform="translate(623 5049)rotate(0)" textLength="40.0px" class="d">  
   $ 1&#x2F;4&#x2F;1
</text><text transform="translate(540 5189)rotate(0)" textLength="206.0px" class="d">  
   Ohne Zuhilfename öffentlicher Mittel
</text><polygon points=" 808 5464 481 5464 481 5614 808 5614 " class="a"/><polygon points=" 808 5766 481 5766 481 5616 808 5616 " class="a"/><polygon points=" 808 5464 890 5614 808 5765 " class="a"/><polygon points=" 481 5464 399 5614 481 5765 " class="a"/><polygon points=" 808 5463 481 5463 481 5613 808 5613 " class="a"/><polygon points=" 808 5765 481 5765 481 5615 808 5615 " class="a"/><polygon points=" 808 5463 890 5613 808 5764 " class="a"/><polygon points=" 481 5463 399 5613 481 5764 " class="a"/><polygon points=" 807 5463 480 5463 480 5613 807 5613 " class="b"/><polygon points=" 807 5765 480 5765 480 5615 807 5615 " class="b"/><polygon points=" 807 5463 889 5613 807 5764 " class="b"/><polygon points=" 480 5463 398 5613 480 5764 " class="b"/><polygon points=" 807 5462 480 5462 480 5612 807 5612 " class="b"/><polygon points=" 807 5764 480 5764 480 5614 807 5614 " class="b"/><polygon points=" 807 5462 889 5612 807 5763 " class="b"/><polygon points=" 480 5462 398 5612 480 5763 " class="b"/><polygon points=" 806 5462 479 5462 479 5612 806 5612 " class="c"/><polygon points=" 806 5764 479 5764 479 5614 806 5614 " class="e"/><polygon points=" 806 5462 888 5612 806 5763 " class="f"/><polygon points=" 479 5462 397 5612 479 5763 " class="g"/><text transform="translate(499 5526)rotate(0)" textLength="288.0px" class="d">  
   Rückzahlung nach RGB BGBI.Nr.336&#x2F;1971, in der
</text><text transform="translate(563 5543)rotate(0)" textLength="159.0px" class="d">  
   Fassung BGBI.Nr.481&#x2F;1980
</text><text transform="translate(632 5483)rotate(0)" textLength="21.0px" class="d">  
   $53
</text><text transform="translate(534 5623)rotate(0)" textLength="217.0px" class="d">  
   Im Falle einer Weitervermietung eines
</text><text transform="translate(507 5639)rotate(0)" textLength="271.0px" class="d">  
   Mietgegenstandes nach gänzlicher Tilgung des
</text><text transform="translate(503 5656)rotate(0)" textLength="279.0px" class="d">  
   Darlehens auf Grund einer vorzeitig begünstigten
</text><text transform="translate(605 5672)rotate(0)" textLength="75.0px" class="d">  
   Rückzahlung
</text><polygon points=" 789 5917 462 5917 462 6068 789 6068 " class="a"/><polygon points=" 789 6220 462 6220 462 6070 789 6070 " class="a"/><polygon points=" 789 5917 871 6068 789 6219 " class="a"/><polygon points=" 462 5917 380 6068 462 6219 " class="a"/><polygon points=" 789 5916 462 5916 462 6067 789 6067 " class="a"/><polygon points=" 789 6219 462 6219 462 6069 789 6069 " class="a"/><polygon points=" 789 5916 871 6067 789 6218 " class="a"/><polygon points=" 462 5916 380 6067 462 6218 " class="a"/><polygon points=" 788 5916 461 5916 461 6067 788 6067 " class="b"/><polygon points=" 788 6219 461 6219 461 6069 788 6069 " class="b"/><polygon points=" 788 5916 870 6067 788 6218 " class="b"/><polygon points=" 461 5916 379 6067 461 6218 " class="b"/><polygon points=" 788 5915 461 5915 461 6066 788 6066 " class="b"/><polygon points=" 788 6218 461 6218 461 6068 788 6068 " class="b"/><polygon points=" 788 5915 870 6066 788 6217 " class="b"/><polygon points=" 461 5915 379 6066 461 6217 " class="b"/><polygon points=" 787 5915 460 5915 460 6066 787 6066 " class="c"/><polygon points=" 787 6218 460 6218 460 6068 787 6068 " class="e"/><polygon points=" 787 5915 869 6066 787 6217 " class="f"/><polygon points=" 460 5915 378 6066 460 6217 " class="g"/><text transform="translate(570 5980)rotate(0)" textLength="107.0px" class="d">  
   Dachbodenausbau
</text><text transform="translate(604 5937)rotate(0)" textLength="40.0px" class="d">  
   $ 1&#x2F;4&#x2F;2
</text><text transform="translate(490 6077)rotate(0)" textLength="268.0px" class="d">  
   Mietgegenstände, die durch den Ausbau eines
</text><text transform="translate(472 6093)rotate(0)" textLength="304.0px" class="d">  
   Dachbodens oder einen Aufbau auf Grund einer nach
</text><text transform="translate(463 6109)rotate(0)" textLength="322.0px" class="d">  
   dem 31. 12.2001 erteilten Baubew. neu errichtet worden
</text><text transform="translate(476 6125)rotate(0)" textLength="296.0px" class="d">  
   sind, sowie unausgebaute Dachbodenr., die mit der
</text><text transform="translate(470 6142)rotate(0)" textLength="308.0px" class="d">  
   Abrede vermietet werden, dass – wenn auch zum Teil
</text><text transform="translate(471 6158)rotate(0)" textLength="305.0px" class="d">  
   oder zur Gänze durch den Hauptmieter – entweder in
</text><text transform="translate(481 6174)rotate(0)" textLength="286.0px" class="d">  
   ihnen oder in einem an ihrer Stelle durchgeführten
</text><text transform="translate(464 6190)rotate(0)" textLength="320.0px" class="d">  
   Aufbau eine Wohnung oder Geschäftsr. errichtet werde,
</text><polygon points=" 789 6352 462 6352 462 6502 789 6502 " class="a"/><polygon points=" 789 6654 462 6654 462 6505 789 6505 " class="a"/><polygon points=" 789 6352 871 6502 789 6653 " class="a"/><polygon points=" 462 6352 380 6502 462 6653 " class="a"/><polygon points=" 789 6351 462 6351 462 6501 789 6501 " class="a"/><polygon points=" 789 6653 462 6653 462 6504 789 6504 " class="a"/><polygon points=" 789 6351 871 6501 789 6652 " class="a"/><polygon points=" 462 6351 380 6501 462 6652 " class="a"/><polygon points=" 788 6351 461 6351 461 6501 788 6501 " class="b"/><polygon points=" 788 6653 461 6653 461 6504 788 6504 " class="b"/><polygon points=" 788 6351 870 6501 788 6652 " class="b"/><polygon points=" 461 6351 379 6501 461 6652 " class="b"/><polygon points=" 788 6350 461 6350 461 6500 788 6500 " class="b"/><polygon points=" 788 6652 461 6652 461 6503 788 6503 " class="b"/><polygon points=" 788 6350 870 6500 788 6651 " class="b"/><polygon points=" 461 6350 379 6500 461 6651 " class="b"/><polygon points=" 787 6350 460 6350 460 6500 787 6500 " class="c"/><polygon points=" 787 6652 460 6652 460 6503 787 6503 " class="e"/><polygon points=" 787 6350 869 6500 787 6651 " class="f"/><polygon points=" 460 6350 378 6500 460 6651 " class="g"/><text transform="translate(567 6415)rotate(0)" textLength="113.0px" class="d">  
   Eigentumswohnung
</text><text transform="translate(604 6372)rotate(0)" textLength="40.0px" class="d">  
   § 1&#x2F;4&#x2F;3
</text><text transform="translate(472 6511)rotate(0)" textLength="304.0px" class="d">  
   Mietgegenstände, die im Wohnungseigentum stehen
</text><polygon points=" 789 6787 462 6787 462 6937 789 6937 " class="a"/><polygon points=" 789 7089 462 7089 462 6939 789 6939 " class="a"/><polygon points=" 789 6787 871 6937 789 7088 " class="a"/><polygon points=" 462 6787 380 6937 462 7088 " class="a"/><polygon points=" 789 6786 462 6786 462 6936 789 6936 " class="a"/><polygon points=" 789 7088 462 7088 462 6938 789 6938 " class="a"/><polygon points=" 789 6786 871 6936 789 7087 " class="a"/><polygon points=" 462 6786 380 6936 462 7087 " class="a"/><polygon points=" 788 6786 461 6786 461 6936 788 6936 " class="b"/><polygon points=" 788 7088 461 7088 461 6938 788 6938 " class="b"/><polygon points=" 788 6786 870 6936 788 7087 " class="b"/><polygon points=" 461 6786 379 6936 461 7087 " class="b"/><polygon points=" 788 6785 461 6785 461 6935 788 6935 " class="b"/><polygon points=" 788 7087 461 7087 461 6937 788 6937 " class="b"/><polygon points=" 788 6785 870 6935 788 7086 " class="b"/><polygon points=" 461 6785 379 6935 461 7086 " class="b"/><polygon points=" 787 6785 460 6785 460 6935 787 6935 " class="c"/><polygon points=" 787 7087 460 7087 460 6937 787 6937 " class="e"/><polygon points=" 787 6785 869 6935 787 7086 " class="f"/><polygon points=" 460 6785 378 6935 460 7086 " class="g"/><text transform="translate(514 6849)rotate(0)" textLength="219.0px" class="d">  
   Baubewilligung nach dem 8. Mai 1945
</text><text transform="translate(604 6806)rotate(0)" textLength="40.0px" class="d">  
   § 1&#x2F;4&#x2F;3
</text><text transform="translate(470 6946)rotate(0)" textLength="308.0px" class="d">  
   Mietgegenstände, die im Wohnungseigentum stehen,
</text><text transform="translate(468 6962)rotate(0)" textLength="311.0px" class="d">  
   sofern der Mietgegenstand in einem Gebäude gelegen
</text><text transform="translate(465 6979)rotate(0)" textLength="318.0px" class="d">  
   ist, das auf Grund einer nach dem 8. Mai 1945 erteilten
</text><text transform="translate(509 6995)rotate(0)" textLength="229.0px" class="d">  
   Baubewilligung neu errichtet worden ist.
</text><polygon points=" 1759 1854 1419 1854 1419 2005 1759 2005 " class="a"/><polygon points=" 1759 2157 1419 2157 1419 2007 1759 2007 " class="a"/><polygon points=" 1759 1854 1845 2005 1759 2156 " class="a"/><polygon points=" 1419 1854 1334 2005 1419 2156 " class="a"/><polygon points=" 1759 1853 1419 1853 1419 2004 1759 2004 " class="a"/><polygon points=" 1759 2156 1419 2156 1419 2006 1759 2006 " class="a"/><polygon points=" 1759 1853 1845 2004 1759 2155 " class="a"/><polygon points=" 1419 1853 1334 2004 1419 2155 " class="a"/><polygon points=" 1758 1853 1418 1853 1418 2004 1758 2004 " class="b"/><polygon points=" 1758 2156 1418 2156 1418 2006 1758 2006 " class="b"/><polygon points=" 1758 1853 1844 2004 1758 2155 " class="b"/><polygon points=" 1418 1853 1333 2004 1418 2155 " class="b"/><polygon points=" 1758 1852 1418 1852 1418 2003 1758 2003 " class="b"/><polygon points=" 1758 2155 1418 2155 1418 2005 1758 2005 " class="b"/><polygon points=" 1758 1852 1844 2003 1758 2154 " class="b"/><polygon points=" 1418 1852 1333 2003 1418 2154 " class="b"/><polygon points=" 1757 1852 1417 1852 1417 2003 1757 2003 " class="c"/><polygon points=" 1757 2155 1417 2155 1417 2005 1757 2005 " class="e"/><polygon points=" 1757 1852 1843 2003 1757 2154 " class="f"/><polygon points=" 1417 1852 1332 2003 1417 2154 " class="g"/><text transform="translate(1455 1917)rotate(0)" textLength="265.0px" class="d">  
   Baubewlligung Geäude nach dem 8. Mai 1945
</text><text transform="translate(1564 1874)rotate(0)" textLength="47.0px" class="d">  
   § 16&#x2F;1&#x2F;2
</text><text transform="translate(1427 2014)rotate(0)" textLength="321.0px" class="d">  
   Der Mietgegenstand ist in einem Gebäude gelegen, das
</text><text transform="translate(1452 2030)rotate(0)" textLength="271.0px" class="d">  
   auf Grund einer nach dem 8. Mai 1945 erteilten
</text><text transform="translate(1473 2046)rotate(0)" textLength="229.0px" class="d">  
   Baubewilligung neu errichtet worden ist.
</text><polygon points=" 1759 2308 1419 2308 1419 2458 1759 2458 " class="a"/><polygon points=" 1759 2610 1419 2610 1419 2461 1759 2461 " class="a"/><polygon points=" 1759 2308 1845 2458 1759 2609 " class="a"/><polygon points=" 1419 2308 1334 2458 1419 2609 " class="a"/><polygon points=" 1759 2307 1419 2307 1419 2457 1759 2457 " class="a"/><polygon points=" 1759 2609 1419 2609 1419 2460 1759 2460 " class="a"/><polygon points=" 1759 2307 1845 2457 1759 2608 " class="a"/><polygon points=" 1419 2307 1334 2457 1419 2608 " class="a"/><polygon points=" 1758 2307 1418 2307 1418 2457 1758 2457 " class="b"/><polygon points=" 1758 2609 1418 2609 1418 2460 1758 2460 " class="b"/><polygon points=" 1758 2307 1844 2457 1758 2608 " class="b"/><polygon points=" 1418 2307 1333 2457 1418 2608 " class="b"/><polygon points=" 1758 2306 1418 2306 1418 2456 1758 2456 " class="b"/><polygon points=" 1758 2608 1418 2608 1418 2459 1758 2459 " class="b"/><polygon points=" 1758 2306 1844 2456 1758 2607 " class="b"/><polygon points=" 1418 2306 1333 2456 1418 2607 " class="b"/><polygon points=" 1757 2306 1417 2306 1417 2456 1757 2456 " class="c"/><polygon points=" 1757 2608 1417 2608 1417 2459 1757 2459 " class="e"/><polygon points=" 1757 2306 1843 2456 1757 2607 " class="f"/><polygon points=" 1417 2306 1332 2456 1417 2607 " class="g"/><text transform="translate(1445 2371)rotate(0)" textLength="286.0px" class="d">  
   Baubewilligung Mietgegenstand nach 8. Mai 1945
</text><text transform="translate(1564 2327)rotate(0)" textLength="47.0px" class="d">  
   $ 16&#x2F;1&#x2F;2
</text><text transform="translate(1424 2467)rotate(0)" textLength="327.0px" class="d">  
   Der Mietgegenstand ist auf Grund einer nach dem 8. Mai
</text><text transform="translate(1426 2484)rotate(0)" textLength="323.0px" class="d">  
   1945 erteilten Baubewilligung durch Um-, Auf-, Ein- oder
</text><text transform="translate(1500 2500)rotate(0)" textLength="175.0px" class="d">  
   Zubau neu geschaffen worden.
</text><polygon points=" 1778 2761 1438 2761 1438 2912 1778 2912 " class="a"/><polygon points=" 1778 3064 1438 3064 1438 2914 1778 2914 " class="a"/><polygon points=" 1778 2761 1863 2912 1778 3063 " class="a"/><polygon points=" 1438 2761 1353 2912 1438 3063 " class="a"/><polygon points=" 1778 2760 1438 2760 1438 2911 1778 2911 " class="a"/><polygon points=" 1778 3063 1438 3063 1438 2913 1778 2913 " class="a"/><polygon points=" 1778 2760 1863 2911 1778 3062 " class="a"/><polygon points=" 1438 2760 1353 2911 1438 3062 " class="a"/><polygon points=" 1777 2760 1437 2760 1437 2911 1777 2911 " class="b"/><polygon points=" 1777 3063 1437 3063 1437 2913 1777 2913 " class="b"/><polygon points=" 1777 2760 1862 2911 1777 3062 " class="b"/><polygon points=" 1437 2760 1352 2911 1437 3062 " class="b"/><polygon points=" 1777 2759 1437 2759 1437 2910 1777 2910 " class="b"/><polygon points=" 1777 3062 1437 3062 1437 2912 1777 2912 " class="b"/><polygon points=" 1777 2759 1862 2910 1777 3061 " class="b"/><polygon points=" 1437 2759 1352 2910 1437 3061 " class="b"/><polygon points=" 1776 2759 1436 2759 1436 2910 1776 2910 " class="c"/><polygon points=" 1776 3062 1436 3062 1436 2912 1776 2912 " class="e"/><polygon points=" 1776 2759 1861 2910 1776 3061 " class="f"/><polygon points=" 1436 2759 1351 2910 1436 3061 " class="g"/><text transform="translate(1561 2824)rotate(0)" textLength="90.0px" class="d">  
   Denkmalschutz
</text><text transform="translate(1583 2781)rotate(0)" textLength="47.0px" class="d">  
   § 16&#x2F;1&#x2F;3
</text><text transform="translate(1449 2921)rotate(0)" textLength="314.0px" class="d">  
   Der Mietgegenstand ist in einem Gebäude gelegen, an
</text><text transform="translate(1451 2937)rotate(0)" textLength="312.0px" class="d">  
   dessen Erhaltung aus Gründen des Denkmalschutzes
</text><text transform="translate(1522 2953)rotate(0)" textLength="169.0px" class="d">  
   öffentliches Interesse besteht
</text><polygon points=" 1778 3234 1438 3234 1438 3384 1778 3384 " class="a"/><polygon points=" 1778 3536 1438 3536 1438 3387 1778 3387 " class="a"/><polygon points=" 1778 3234 1863 3384 1778 3535 " class="a"/><polygon points=" 1438 3234 1353 3384 1438 3535 " class="a"/><polygon points=" 1778 3233 1438 3233 1438 3383 1778 3383 " class="a"/><polygon points=" 1778 3535 1438 3535 1438 3386 1778 3386 " class="a"/><polygon points=" 1778 3233 1863 3383 1778 3534 " class="a"/><polygon points=" 1438 3233 1353 3383 1438 3534 " class="a"/><polygon points=" 1777 3233 1437 3233 1437 3383 1777 3383 " class="b"/><polygon points=" 1777 3535 1437 3535 1437 3386 1777 3386 " class="b"/><polygon points=" 1777 3233 1862 3383 1777 3534 " class="b"/><polygon points=" 1437 3233 1352 3383 1437 3534 " class="b"/><polygon points=" 1777 3232 1437 3232 1437 3382 1777 3382 " class="b"/><polygon points=" 1777 3534 1437 3534 1437 3385 1777 3385 " class="b"/><polygon points=" 1777 3232 1862 3382 1777 3533 " class="b"/><polygon points=" 1437 3232 1352 3382 1437 3533 " class="b"/><polygon points=" 1776 3232 1436 3232 1436 3382 1776 3382 " class="c"/><polygon points=" 1776 3534 1436 3534 1436 3385 1776 3385 " class="e"/><polygon points=" 1776 3232 1861 3382 1776 3533 " class="f"/><polygon points=" 1436 3232 1351 3382 1436 3533 " class="g"/><text transform="translate(1475 3297)rotate(0)" textLength="263.0px" class="d">  
   Erhebliche Eigenmittel nach dem 8. Mai 1945
</text><text transform="translate(1583 3253)rotate(0)" textLength="47.0px" class="d">  
   § 16&#x2F;1&#x2F;3
</text><text transform="translate(1471 3393)rotate(0)" textLength="271.0px" class="d">  
   Der Vermieter hat unbeschadet der Gewährung
</text><text transform="translate(1446 3410)rotate(0)" textLength="322.0px" class="d">  
   öffentlicher Mittel zu dessen Erhaltung nach dem 8. Mai
</text><text transform="translate(1486 3426)rotate(0)" textLength="240.0px" class="d">  
   1945 erhebliche Eigenmittel aufgewendet.
</text><polygon points=" 1778 3706 1438 3706 1438 3857 1778 3857 " class="a"/><polygon points=" 1778 4009 1438 4009 1438 3859 1778 3859 " class="a"/><polygon points=" 1778 3706 1863 3857 1778 4008 " class="a"/><polygon points=" 1438 3706 1353 3857 1438 4008 " class="a"/><polygon points=" 1778 3705 1438 3705 1438 3856 1778 3856 " class="a"/><polygon points=" 1778 4008 1438 4008 1438 3858 1778 3858 " class="a"/><polygon points=" 1778 3705 1863 3856 1778 4007 " class="a"/><polygon points=" 1438 3705 1353 3856 1438 4007 " class="a"/><polygon points=" 1777 3705 1437 3705 1437 3856 1777 3856 " class="b"/><polygon points=" 1777 4008 1437 4008 1437 3858 1777 3858 " class="b"/><polygon points=" 1777 3705 1862 3856 1777 4007 " class="b"/><polygon points=" 1437 3705 1352 3856 1437 4007 " class="b"/><polygon points=" 1777 3704 1437 3704 1437 3855 1777 3855 " class="b"/><polygon points=" 1777 4007 1437 4007 1437 3857 1777 3857 " class="b"/><polygon points=" 1777 3704 1862 3855 1777 4006 " class="b"/><polygon points=" 1437 3704 1352 3855 1437 4006 " class="b"/><polygon points=" 1776 3704 1436 3704 1436 3855 1776 3855 " class="c"/><polygon points=" 1776 4007 1436 4007 1436 3857 1776 3857 " class="e"/><polygon points=" 1776 3704 1861 3855 1776 4006 " class="f"/><polygon points=" 1436 3704 1351 3855 1436 4006 " class="g"/><text transform="translate(1527 3769)rotate(0)" textLength="159.0px" class="d">  
   Unbefristetes Mietverhältnis
</text><text transform="translate(1583 3726)rotate(0)" textLength="47.0px" class="d">  
   $ 16&#x2F;1&#x2F;5
</text><text transform="translate(1493 3866)rotate(0)" textLength="228.0px" class="d">  
   Ein unbefristetes Mietverhältnis liegt vor
</text><polygon points=" 1778 4160 1438 4160 1438 4310 1778 4310 " class="a"/><polygon points=" 1778 4462 1438 4462 1438 4313 1778 4313 " class="a"/><polygon points=" 1778 4160 1863 4310 1778 4461 " class="a"/><polygon points=" 1438 4160 1353 4310 1438 4461 " class="a"/><polygon points=" 1778 4159 1438 4159 1438 4309 1778 4309 " class="a"/><polygon points=" 1778 4461 1438 4461 1438 4312 1778 4312 " class="a"/><polygon points=" 1778 4159 1863 4309 1778 4460 " class="a"/><polygon points=" 1438 4159 1353 4309 1438 4460 " class="a"/><polygon points=" 1777 4159 1437 4159 1437 4309 1777 4309 " class="b"/><polygon points=" 1777 4461 1437 4461 1437 4312 1777 4312 " class="b"/><polygon points=" 1777 4159 1862 4309 1777 4460 " class="b"/><polygon points=" 1437 4159 1352 4309 1437 4460 " class="b"/><polygon points=" 1777 4158 1437 4158 1437 4308 1777 4308 " class="b"/><polygon points=" 1777 4460 1437 4460 1437 4311 1777 4311 " class="b"/><polygon points=" 1777 4158 1862 4308 1777 4459 " class="b"/><polygon points=" 1437 4158 1352 4308 1437 4459 " class="b"/><polygon points=" 1776 4158 1436 4158 1436 4308 1776 4308 " class="c"/><polygon points=" 1776 4460 1436 4460 1436 4311 1776 4311 " class="e"/><polygon points=" 1776 4158 1861 4308 1776 4459 " class="f"/><polygon points=" 1436 4158 1351 4308 1436 4459 " class="g"/><text transform="translate(1558 4222)rotate(0)" textLength="97.0px" class="d">  
   Nach einem Jahr
</text><text transform="translate(1583 4179)rotate(0)" textLength="47.0px" class="d">  
   $ 16&#x2F;1&#x2F;5
</text><text transform="translate(1451 4319)rotate(0)" textLength="310.0px" class="d">  
   Seit Übergabe des Mietgegenstandes ist mehr als ein
</text><text transform="translate(1559 4335)rotate(0)" textLength="94.0px" class="d">  
   Jahr verstrichen.
</text><polygon points=" 1778 4595 1438 4595 1438 4745 1778 4745 " class="a"/><polygon points=" 1778 4897 1438 4897 1438 4747 1778 4747 " class="a"/><polygon points=" 1778 4595 1863 4745 1778 4896 " class="a"/><polygon points=" 1438 4595 1353 4745 1438 4896 " class="a"/><polygon points=" 1778 4594 1438 4594 1438 4744 1778 4744 " class="a"/><polygon points=" 1778 4896 1438 4896 1438 4746 1778 4746 " class="a"/><polygon points=" 1778 4594 1863 4744 1778 4895 " class="a"/><polygon points=" 1438 4594 1353 4744 1438 4895 " class="a"/><polygon points=" 1777 4594 1437 4594 1437 4744 1777 4744 " class="b"/><polygon points=" 1777 4896 1437 4896 1437 4746 1777 4746 " class="b"/><polygon points=" 1777 4594 1862 4744 1777 4895 " class="b"/><polygon points=" 1437 4594 1352 4744 1437 4895 " class="b"/><polygon points=" 1777 4593 1437 4593 1437 4743 1777 4743 " class="b"/><polygon points=" 1777 4895 1437 4895 1437 4745 1777 4745 " class="b"/><polygon points=" 1777 4593 1862 4743 1777 4894 " class="b"/><polygon points=" 1437 4593 1352 4743 1437 4894 " class="b"/><polygon points=" 1776 4593 1436 4593 1436 4743 1776 4743 " class="c"/><polygon points=" 1776 4895 1436 4895 1436 4745 1776 4745 " class="e"/><polygon points=" 1776 4593 1861 4743 1776 4894 " class="f"/><polygon points=" 1436 4593 1351 4743 1436 4894 " class="g"/><text transform="translate(1513 4657)rotate(0)" textLength="187.0px" class="d">  
   HMZ-Vereinbarung in Schriftform
</text><text transform="translate(1583 4614)rotate(0)" textLength="47.0px" class="d">  
   $ 16&#x2F;1&#x2F;5
</text><text transform="translate(1440 4754)rotate(0)" textLength="334.0px" class="d">  
   die Vereinbarung über die Höhe des Hauptmietzinses wird
</text><text transform="translate(1540 4770)rotate(0)" textLength="133.0px" class="d">  
   in Schriftform getroffen.
</text><polygon points=" 1778 5029 1438 5029 1438 5180 1778 5180 " class="a"/><polygon points=" 1778 5332 1438 5332 1438 5182 1778 5182 " class="a"/><polygon points=" 1778 5029 1863 5180 1778 5330 " class="a"/><polygon points=" 1438 5029 1353 5180 1438 5330 " class="a"/><polygon points=" 1778 5028 1438 5028 1438 5179 1778 5179 " class="a"/><polygon points=" 1778 5331 1438 5331 1438 5181 1778 5181 " class="a"/><polygon points=" 1778 5028 1863 5179 1778 5329 " class="a"/><polygon points=" 1438 5028 1353 5179 1438 5329 " class="a"/><polygon points=" 1777 5028 1437 5028 1437 5179 1777 5179 " class="b"/><polygon points=" 1777 5331 1437 5331 1437 5181 1777 5181 " class="b"/><polygon points=" 1777 5028 1862 5179 1777 5329 " class="b"/><polygon points=" 1437 5028 1352 5179 1437 5329 " class="b"/><polygon points=" 1777 5027 1437 5027 1437 5178 1777 5178 " class="b"/><polygon points=" 1777 5330 1437 5330 1437 5180 1777 5180 " class="b"/><polygon points=" 1777 5027 1862 5178 1777 5328 " class="b"/><polygon points=" 1437 5027 1352 5178 1437 5328 " class="b"/><polygon points=" 1776 5027 1436 5027 1436 5178 1776 5178 " class="c"/><polygon points=" 1776 5330 1436 5330 1436 5180 1776 5180 " class="e"/><polygon points=" 1776 5027 1861 5178 1776 5328 " class="f"/><polygon points=" 1436 5027 1351 5178 1436 5328 " class="g"/><text transform="translate(1542 5092)rotate(0)" textLength="129.0px" class="d">  
   Kategorie A oder B (2)
</text><text transform="translate(1583 5049)rotate(0)" textLength="47.0px" class="d">  
   § 16&#x2F;1&#x2F;4
</text><text transform="translate(1485 5189)rotate(0)" textLength="243.0px" class="d">  
   Der Mietgegenstand ist eine Wohnung der
</text><text transform="translate(1512 5205)rotate(0)" textLength="189.0px" class="d">  
   Ausstattungskategorie A oder B.
</text><polygon points=" 1797 5464 1457 5464 1457 5614 1797 5614 " class="a"/><polygon points=" 1797 5766 1457 5766 1457 5616 1797 5616 " class="a"/><polygon points=" 1797 5464 1882 5614 1797 5765 " class="a"/><polygon points=" 1457 5464 1372 5614 1457 5765 " class="a"/><polygon points=" 1797 5463 1457 5463 1457 5613 1797 5613 " class="a"/><polygon points=" 1797 5765 1457 5765 1457 5615 1797 5615 " class="a"/><polygon points=" 1797 5463 1882 5613 1797 5764 " class="a"/><polygon points=" 1457 5463 1372 5613 1457 5764 " class="a"/><polygon points=" 1796 5463 1456 5463 1456 5613 1796 5613 " class="b"/><polygon points=" 1796 5765 1456 5765 1456 5615 1796 5615 " class="b"/><polygon points=" 1796 5463 1881 5613 1796 5764 " class="b"/><polygon points=" 1456 5463 1371 5613 1456 5764 " class="b"/><polygon points=" 1796 5462 1456 5462 1456 5612 1796 5612 " class="b"/><polygon points=" 1796 5764 1456 5764 1456 5614 1796 5614 " class="b"/><polygon points=" 1796 5462 1881 5612 1796 5763 " class="b"/><polygon points=" 1456 5462 1371 5612 1456 5763 " class="b"/><polygon points=" 1795 5462 1455 5462 1455 5612 1795 5612 " class="c"/><polygon points=" 1795 5764 1455 5764 1455 5614 1795 5614 " class="e"/><polygon points=" 1795 5462 1880 5612 1795 5763 " class="f"/><polygon points=" 1455 5462 1370 5612 1455 5763 " class="g"/><text transform="translate(1552 5526)rotate(0)" textLength="147.0px" class="d">  
   Nutzfläche größer 130 m²
</text><text transform="translate(1602 5483)rotate(0)" textLength="47.0px" class="d">  
   § 16&#x2F;1&#x2F;4
</text><text transform="translate(1522 5623)rotate(0)" textLength="207.0px" class="d">  
   Seine Nutzfläche übersteigt 130 m².
</text><polygon points=" 2704 1854 2364 1854 2364 2005 2704 2005 " class="a"/><polygon points=" 2704 2157 2364 2157 2364 2007 2704 2007 " class="a"/><polygon points=" 2704 1854 2789 2005 2704 2156 " class="a"/><polygon points=" 2364 1854 2279 2005 2364 2156 " class="a"/><polygon points=" 2704 1853 2364 1853 2364 2004 2704 2004 " class="a"/><polygon points=" 2704 2156 2364 2156 2364 2006 2704 2006 " class="a"/><polygon points=" 2704 1853 2789 2004 2704 2155 " class="a"/><polygon points=" 2364 1853 2279 2004 2364 2155 " class="a"/><polygon points=" 2703 1853 2363 1853 2363 2004 2703 2004 " class="b"/><polygon points=" 2703 2156 2363 2156 2363 2006 2703 2006 " class="b"/><polygon points=" 2703 1853 2788 2004 2703 2155 " class="b"/><polygon points=" 2363 1853 2278 2004 2363 2155 " class="b"/><polygon points=" 2703 1852 2363 1852 2363 2003 2703 2003 " class="b"/><polygon points=" 2703 2155 2363 2155 2363 2005 2703 2005 " class="b"/><polygon points=" 2703 1852 2788 2003 2703 2154 " class="b"/><polygon points=" 2363 1852 2278 2003 2363 2154 " class="b"/><polygon points=" 2702 1852 2362 1852 2362 2003 2702 2003 " class="c"/><polygon points=" 2702 2155 2362 2155 2362 2005 2702 2005 " class="e"/><polygon points=" 2702 1852 2787 2003 2702 2154 " class="f"/><polygon points=" 2362 1852 2277 2003 2362 2154 " class="g"/><text transform="translate(2474 1917)rotate(0)" textLength="116.0px" class="d">  
   Ordnungsgemäß (1)
</text><text transform="translate(2516 1874)rotate(0)" textLength="32.0px" class="d">  
   $ 46c
</text><text transform="translate(2415 2014)rotate(0)" textLength="235.0px" class="d">  
   Der Mietgegenstand ist eine Wohnung in
</text><text transform="translate(2450 2030)rotate(0)" textLength="166.0px" class="d">  
   ordnungsgemäßem Zustand.
</text><polygon points=" 2704 2308 2364 2308 2364 2458 2704 2458 " class="a"/><polygon points=" 2704 2610 2364 2610 2364 2461 2704 2461 " class="a"/><polygon points=" 2704 2308 2789 2458 2704 2609 " class="a"/><polygon points=" 2364 2308 2279 2458 2364 2609 " class="a"/><polygon points=" 2704 2307 2364 2307 2364 2457 2704 2457 " class="a"/><polygon points=" 2704 2609 2364 2609 2364 2460 2704 2460 " class="a"/><polygon points=" 2704 2307 2789 2457 2704 2608 " class="a"/><polygon points=" 2364 2307 2279 2457 2364 2608 " class="a"/><polygon points=" 2703 2307 2363 2307 2363 2457 2703 2457 " class="b"/><polygon points=" 2703 2609 2363 2609 2363 2460 2703 2460 " class="b"/><polygon points=" 2703 2307 2788 2457 2703 2608 " class="b"/><polygon points=" 2363 2307 2278 2457 2363 2608 " class="b"/><polygon points=" 2703 2306 2363 2306 2363 2456 2703 2456 " class="b"/><polygon points=" 2703 2608 2363 2608 2363 2459 2703 2459 " class="b"/><polygon points=" 2703 2306 2788 2456 2703 2607 " class="b"/><polygon points=" 2363 2306 2278 2456 2363 2607 " class="b"/><polygon points=" 2702 2306 2362 2306 2362 2456 2702 2456 " class="c"/><polygon points=" 2702 2608 2362 2608 2362 2459 2702 2459 " class="e"/><polygon points=" 2702 2306 2787 2456 2702 2607 " class="f"/><polygon points=" 2362 2306 2277 2456 2362 2607 " class="g"/><text transform="translate(2463 2371)rotate(0)" textLength="138.0px" class="d">  
   Zusammenlegung von D
</text><text transform="translate(2516 2327)rotate(0)" textLength="32.0px" class="d">  
   $ 46c
</text><text transform="translate(2374 2467)rotate(0)" textLength="317.0px" class="d">  
   Standard vom Vermieter nach dem 31. Dezember 1967
</text><text transform="translate(2405 2484)rotate(0)" textLength="256.0px" class="d">  
   durch Zusammenlegung von Wohnungen der
</text><text transform="translate(2425 2500)rotate(0)" textLength="214.0px" class="d">  
   Ausstattungskategorie D angehoben.
</text><polygon points=" 2704 2761 2364 2761 2364 2912 2704 2912 " class="a"/><polygon points=" 2704 3064 2364 3064 2364 2914 2704 2914 " class="a"/><polygon points=" 2704 2761 2789 2912 2704 3063 " class="a"/><polygon points=" 2364 2761 2279 2912 2364 3063 " class="a"/><polygon points=" 2704 2760 2364 2760 2364 2911 2704 2911 " class="a"/><polygon points=" 2704 3063 2364 3063 2364 2913 2704 2913 " class="a"/><polygon points=" 2704 2760 2789 2911 2704 3062 " class="a"/><polygon points=" 2364 2760 2279 2911 2364 3062 " class="a"/><polygon points=" 2703 2760 2363 2760 2363 2911 2703 2911 " class="b"/><polygon points=" 2703 3063 2363 3063 2363 2913 2703 2913 " class="b"/><polygon points=" 2703 2760 2788 2911 2703 3062 " class="b"/><polygon points=" 2363 2760 2278 2911 2363 3062 " class="b"/><polygon points=" 2703 2759 2363 2759 2363 2910 2703 2910 " class="b"/><polygon points=" 2703 3062 2363 3062 2363 2912 2703 2912 " class="b"/><polygon points=" 2703 2759 2788 2910 2703 3061 " class="b"/><polygon points=" 2363 2759 2278 2910 2363 3061 " class="b"/><polygon points=" 2702 2759 2362 2759 2362 2910 2702 2910 " class="c"/><polygon points=" 2702 3062 2362 3062 2362 2912 2702 2912 " class="e"/><polygon points=" 2702 2759 2787 2910 2702 3061 " class="f"/><polygon points=" 2362 2759 2277 2910 2362 3061 " class="g"/><text transform="translate(2434 2824)rotate(0)" textLength="197.0px" class="d">  
   Bautechnische Maßnahmen bei D
</text><text transform="translate(2516 2781)rotate(0)" textLength="32.0px" class="d">  
   $ 46c
</text><text transform="translate(2379 2921)rotate(0)" textLength="307.0px" class="d">  
   Standard durch eine andere bautechnische Aus- oder
</text><text transform="translate(2371 2937)rotate(0)" textLength="324.0px" class="d">  
   Umgestaltung größeren Ausmaßes einer Wohnung oder
</text><text transform="translate(2386 2953)rotate(0)" textLength="293.0px" class="d">  
   mehrerer Wohnungen der Ausstattungskategorie D
</text><text transform="translate(2499 2970)rotate(0)" textLength="67.0px" class="d">  
   angehoben.
</text><polygon points=" 2704 3253 2364 3253 2364 3403 2704 3403 " class="a"/><polygon points=" 2704 3555 2364 3555 2364 3405 2704 3405 " class="a"/><polygon points=" 2704 3253 2789 3403 2704 3554 " class="a"/><polygon points=" 2364 3253 2279 3403 2364 3554 " class="a"/><polygon points=" 2704 3252 2364 3252 2364 3402 2704 3402 " class="a"/><polygon points=" 2704 3554 2364 3554 2364 3404 2704 3404 " class="a"/><polygon points=" 2704 3252 2789 3402 2704 3553 " class="a"/><polygon points=" 2364 3252 2279 3402 2364 3553 " class="a"/><polygon points=" 2703 3252 2363 3252 2363 3402 2703 3402 " class="b"/><polygon points=" 2703 3554 2363 3554 2363 3404 2703 3404 " class="b"/><polygon points=" 2703 3252 2788 3402 2703 3553 " class="b"/><polygon points=" 2363 3252 2278 3402 2363 3553 " class="b"/><polygon points=" 2703 3251 2363 3251 2363 3401 2703 3401 " class="b"/><polygon points=" 2703 3553 2363 3553 2363 3403 2703 3403 " class="b"/><polygon points=" 2703 3251 2788 3401 2703 3552 " class="b"/><polygon points=" 2363 3251 2278 3401 2363 3552 " class="b"/><polygon points=" 2702 3251 2362 3251 2362 3401 2702 3401 " class="c"/><polygon points=" 2702 3553 2362 3553 2362 3403 2702 3403 " class="e"/><polygon points=" 2702 3251 2787 3401 2702 3552 " class="f"/><polygon points=" 2362 3251 2277 3401 2362 3552 " class="g"/><text transform="translate(2484 3315)rotate(0)" textLength="97.0px" class="d">  
   Erhebliche Mittel
</text><text transform="translate(2516 3272)rotate(0)" textLength="32.0px" class="d">  
   $ 46c
</text><text transform="translate(2366 3412)rotate(0)" textLength="333.0px" class="d">  
   Standard unter Aufwendung erheblicher Mittel angehoben.
</text><polygon points=" 2704 3706 2364 3706 2364 3857 2704 3857 " class="a"/><polygon points=" 2704 4009 2364 4009 2364 3859 2704 3859 " class="a"/><polygon points=" 2704 3706 2789 3857 2704 4008 " class="a"/><polygon points=" 2364 3706 2279 3857 2364 4008 " class="a"/><polygon points=" 2704 3705 2364 3705 2364 3856 2704 3856 " class="a"/><polygon points=" 2704 4008 2364 4008 2364 3858 2704 3858 " class="a"/><polygon points=" 2704 3705 2789 3856 2704 4007 " class="a"/><polygon points=" 2364 3705 2279 3856 2364 4007 " class="a"/><polygon points=" 2703 3705 2363 3705 2363 3856 2703 3856 " class="b"/><polygon points=" 2703 4008 2363 4008 2363 3858 2703 3858 " class="b"/><polygon points=" 2703 3705 2788 3856 2703 4007 " class="b"/><polygon points=" 2363 3705 2278 3856 2363 4007 " class="b"/><polygon points=" 2703 3704 2363 3704 2363 3855 2703 3855 " class="b"/><polygon points=" 2703 4007 2363 4007 2363 3857 2703 3857 " class="b"/><polygon points=" 2703 3704 2788 3855 2703 4006 " class="b"/><polygon points=" 2363 3704 2278 3855 2363 4006 " class="b"/><polygon points=" 2702 3704 2362 3704 2362 3855 2702 3855 " class="c"/><polygon points=" 2702 4007 2362 4007 2362 3857 2702 3857 " class="e"/><polygon points=" 2702 3704 2787 3855 2702 4006 " class="f"/><polygon points=" 2362 3704 2277 3855 2362 4006 " class="g"/><text transform="translate(2474 3769)rotate(0)" textLength="116.0px" class="d">  
   Ordnungsgemäß (2)
</text><text transform="translate(2516 3726)rotate(0)" textLength="32.0px" class="d">  
   $ 46c
</text><text transform="translate(2415 3866)rotate(0)" textLength="235.0px" class="d">  
   Der Mietgegenstand ist eine Wohnung in
</text><text transform="translate(2450 3882)rotate(0)" textLength="166.0px" class="d">  
   ordnungsgemäßem Zustand.
</text><polygon points=" 2704 4160 2364 4160 2364 4310 2704 4310 " class="a"/><polygon points=" 2704 4462 2364 4462 2364 4313 2704 4313 " class="a"/><polygon points=" 2704 4160 2789 4310 2704 4461 " class="a"/><polygon points=" 2364 4160 2279 4310 2364 4461 " class="a"/><polygon points=" 2704 4159 2364 4159 2364 4309 2704 4309 " class="a"/><polygon points=" 2704 4461 2364 4461 2364 4312 2704 4312 " class="a"/><polygon points=" 2704 4159 2789 4309 2704 4460 " class="a"/><polygon points=" 2364 4159 2279 4309 2364 4460 " class="a"/><polygon points=" 2703 4159 2363 4159 2363 4309 2703 4309 " class="b"/><polygon points=" 2703 4461 2363 4461 2363 4312 2703 4312 " class="b"/><polygon points=" 2703 4159 2788 4309 2703 4460 " class="b"/><polygon points=" 2363 4159 2278 4309 2363 4460 " class="b"/><polygon points=" 2703 4158 2363 4158 2363 4308 2703 4308 " class="b"/><polygon points=" 2703 4460 2363 4460 2363 4311 2703 4311 " class="b"/><polygon points=" 2703 4158 2788 4308 2703 4459 " class="b"/><polygon points=" 2363 4158 2278 4308 2363 4459 " class="b"/><polygon points=" 2702 4158 2362 4158 2362 4308 2702 4308 " class="c"/><polygon points=" 2702 4460 2362 4460 2362 4311 2702 4311 " class="e"/><polygon points=" 2702 4158 2787 4308 2702 4459 " class="f"/><polygon points=" 2362 4158 2277 4308 2362 4459 " class="g"/><text transform="translate(2454 4222)rotate(0)" textLength="157.0px" class="d">  
   Zusammenlegung von D (2)
</text><text transform="translate(2516 4179)rotate(0)" textLength="32.0px" class="d">  
   $ 46c
</text><text transform="translate(2374 4319)rotate(0)" textLength="317.0px" class="d">  
   Standard vom Vermieter nach dem 31. Dezember 1967
</text><text transform="translate(2405 4335)rotate(0)" textLength="256.0px" class="d">  
   durch Zusammenlegung von Wohnungen der
</text><text transform="translate(2425 4352)rotate(0)" textLength="214.0px" class="d">  
   Ausstattungskategorie D angehoben.
</text><polygon points=" 2704 4613 2364 4613 2364 4764 2704 4764 " class="a"/><polygon points=" 2704 4916 2364 4916 2364 4766 2704 4766 " class="a"/><polygon points=" 2704 4613 2789 4764 2704 4915 " class="a"/><polygon points=" 2364 4613 2279 4764 2364 4915 " class="a"/><polygon points=" 2704 4612 2364 4612 2364 4763 2704 4763 " class="a"/><polygon points=" 2704 4915 2364 4915 2364 4765 2704 4765 " class="a"/><polygon points=" 2704 4612 2789 4763 2704 4914 " class="a"/><polygon points=" 2364 4612 2279 4763 2364 4914 " class="a"/><polygon points=" 2703 4612 2363 4612 2363 4763 2703 4763 " class="b"/><polygon points=" 2703 4915 2363 4915 2363 4765 2703 4765 " class="b"/><polygon points=" 2703 4612 2788 4763 2703 4914 " class="b"/><polygon points=" 2363 4612 2278 4763 2363 4914 " class="b"/><polygon points=" 2703 4611 2363 4611 2363 4762 2703 4762 " class="b"/><polygon points=" 2703 4914 2363 4914 2363 4764 2703 4764 " class="b"/><polygon points=" 2703 4611 2788 4762 2703 4913 " class="b"/><polygon points=" 2363 4611 2278 4762 2363 4913 " class="b"/><polygon points=" 2702 4611 2362 4611 2362 4762 2702 4762 " class="c"/><polygon points=" 2702 4914 2362 4914 2362 4764 2702 4764 " class="e"/><polygon points=" 2702 4611 2787 4762 2702 4913 " class="f"/><polygon points=" 2362 4611 2277 4762 2362 4913 " class="g"/><text transform="translate(2405 4676)rotate(0)" textLength="256.0px" class="d">  
   Bautechnische Maßnahmen bei B, C oder D
</text><text transform="translate(2515 4633)rotate(0)" textLength="36.0px" class="d">  
   $  46c
</text><text transform="translate(2406 4773)rotate(0)" textLength="253.0px" class="d">  
   Durch eine andere bautechnische Aus- oder
</text><text transform="translate(2371 4789)rotate(0)" textLength="324.0px" class="d">  
   Umgestaltung größeren Ausmaßes einer Wohnung oder
</text><text transform="translate(2374 4805)rotate(0)" textLength="317.0px" class="d">  
   mehrerer Wohnungen der Ausstattungskategorien B, C
</text><text transform="translate(2478 4822)rotate(0)" textLength="109.0px" class="d">  
   oder D angehoben.
</text><polygon points=" 2704 5029 2364 5029 2364 5180 2704 5180 " class="a"/><polygon points=" 2704 5332 2364 5332 2364 5182 2704 5182 " class="a"/><polygon points=" 2704 5029 2789 5180 2704 5330 " class="a"/><polygon points=" 2364 5029 2279 5180 2364 5330 " class="a"/><polygon points=" 2704 5028 2364 5028 2364 5179 2704 5179 " class="a"/><polygon points=" 2704 5331 2364 5331 2364 5181 2704 5181 " class="a"/><polygon points=" 2704 5028 2789 5179 2704 5329 " class="a"/><polygon points=" 2364 5028 2279 5179 2364 5329 " class="a"/><polygon points=" 2703 5028 2363 5028 2363 5179 2703 5179 " class="b"/><polygon points=" 2703 5331 2363 5331 2363 5181 2703 5181 " class="b"/><polygon points=" 2703 5028 2788 5179 2703 5329 " class="b"/><polygon points=" 2363 5028 2278 5179 2363 5329 " class="b"/><polygon points=" 2703 5027 2363 5027 2363 5178 2703 5178 " class="b"/><polygon points=" 2703 5330 2363 5330 2363 5180 2703 5180 " class="b"/><polygon points=" 2703 5027 2788 5178 2703 5328 " class="b"/><polygon points=" 2363 5027 2278 5178 2363 5328 " class="b"/><polygon points=" 2702 5027 2362 5027 2362 5178 2702 5178 " class="c"/><polygon points=" 2702 5330 2362 5330 2362 5180 2702 5180 " class="e"/><polygon points=" 2702 5027 2787 5178 2702 5328 " class="f"/><polygon points=" 2362 5027 2277 5178 2362 5328 " class="g"/><text transform="translate(2463 5092)rotate(0)" textLength="138.0px" class="d">  
   Erhebliche Maßnahmen
</text><text transform="translate(2516 5049)rotate(0)" textLength="32.0px" class="d">  
   $ 46c
</text><text transform="translate(2366 5189)rotate(0)" textLength="333.0px" class="d">  
   Standard unter Aufwendung erheblicher Mittel angehoben.
</text><polygon points=" 2704 5464 2364 5464 2364 5614 2704 5614 " class="a"/><polygon points=" 2704 5766 2364 5766 2364 5616 2704 5616 " class="a"/><polygon points=" 2704 5464 2789 5614 2704 5765 " class="a"/><polygon points=" 2364 5464 2279 5614 2364 5765 " class="a"/><polygon points=" 2704 5463 2364 5463 2364 5613 2704 5613 " class="a"/><polygon points=" 2704 5765 2364 5765 2364 5615 2704 5615 " class="a"/><polygon points=" 2704 5463 2789 5613 2704 5764 " class="a"/><polygon points=" 2364 5463 2279 5613 2364 5764 " class="a"/><polygon points=" 2703 5463 2363 5463 2363 5613 2703 5613 " class="b"/><polygon points=" 2703 5765 2363 5765 2363 5615 2703 5615 " class="b"/><polygon points=" 2703 5463 2788 5613 2703 5764 " class="b"/><polygon points=" 2363 5463 2278 5613 2363 5764 " class="b"/><polygon points=" 2703 5462 2363 5462 2363 5612 2703 5612 " class="b"/><polygon points=" 2703 5764 2363 5764 2363 5614 2703 5614 " class="b"/><polygon points=" 2703 5462 2788 5612 2703 5763 " class="b"/><polygon points=" 2363 5462 2278 5612 2363 5763 " class="b"/><polygon points=" 2702 5462 2362 5462 2362 5612 2702 5612 " class="c"/><polygon points=" 2702 5764 2362 5764 2362 5614 2702 5614 " class="e"/><polygon points=" 2702 5462 2787 5612 2702 5763 " class="f"/><polygon points=" 2362 5462 2277 5612 2362 5763 " class="g"/><text transform="translate(2403 5526)rotate(0)" textLength="260.0px" class="d">  
   Beginn der Arbeiten vor dem 1. Oktober 1983
</text><text transform="translate(2516 5483)rotate(0)" textLength="32.0px" class="d">  
   § 46c
</text><text transform="translate(2366 5623)rotate(0)" textLength="334.0px" class="d">  
   Vermieter hat die Arbeiten zur Standardanhebung vor dem
</text><text transform="translate(2420 5639)rotate(0)" textLength="224.0px" class="d">  
   1. Oktober 1993 tatsächlich begonnen.
</text><path d="M1587 299L1587 448" class="h"/><polygon points=" 1583 440 1587 448 1592 440 " class="i"/><path d="M1587 686L1587 769" class="h"/><polygon points=" 1583 762 1587 769 1592 762 " class="i"/><path d="M1801 888L2593 888" class="h"/><polygon points=" 2585 892 2593 888 2585 884 " class="i"/><text transform="translate(2555 850)rotate(0)" textLength="26.0px" class="d">  
   Nein
</text><path d="M1374 888L626 888C625 888 624 889 624 890L624 1431" class="h"/><polygon points=" 619 1423 624 1431 628 1423 " class="i"/><text transform="translate(661 1393)rotate(0)" textLength="13.0px" class="d">  
   Ja
</text><polygon points=" 1797 5917 1457 5917 1457 6068 1797 6068 " class="a"/><polygon points=" 1797 6220 1457 6220 1457 6070 1797 6070 " class="a"/><polygon points=" 1797 5917 1882 6068 1797 6219 " class="a"/><polygon points=" 1457 5917 1372 6068 1457 6219 " class="a"/><polygon points=" 1797 5916 1457 5916 1457 6067 1797 6067 " class="a"/><polygon points=" 1797 6219 1457 6219 1457 6069 1797 6069 " class="a"/><polygon points=" 1797 5916 1882 6067 1797 6218 " class="a"/><polygon points=" 1457 5916 1372 6067 1457 6218 " class="a"/><polygon points=" 1796 5916 1456 5916 1456 6067 1796 6067 " class="b"/><polygon points=" 1796 6219 1456 6219 1456 6069 1796 6069 " class="b"/><polygon points=" 1796 5916 1881 6067 1796 6218 " class="b"/><polygon points=" 1456 5916 1371 6067 1456 6218 " class="b"/><polygon points=" 1796 5915 1456 5915 1456 6066 1796 6066 " class="b"/><polygon points=" 1796 6218 1456 6218 1456 6068 1796 6068 " class="b"/><polygon points=" 1796 5915 1881 6066 1796 6217 " class="b"/><polygon points=" 1456 5915 1371 6066 1456 6217 " class="b"/><polygon points=" 1795 5915 1455 5915 1455 6066 1795 6066 " class="c"/><polygon points=" 1795 6218 1455 6218 1455 6068 1795 6068 " class="e"/><polygon points=" 1795 5915 1880 6066 1795 6217 " class="f"/><polygon points=" 1455 5915 1370 6066 1455 6217 " class="g"/><text transform="translate(1510 5980)rotate(0)" textLength="231.0px" class="d">  
   Vermietung an Nicht-Eintrittsberechtigte
</text><text transform="translate(1602 5937)rotate(0)" textLength="47.0px" class="d">  
   § 16&#x2F;1&#x2F;4
</text><text transform="translate(1465 6077)rotate(0)" textLength="321.0px" class="d">  
   Der Vermieter vermietet eine solche Wohnung innerhalb
</text><text transform="translate(1457 6093)rotate(0)" textLength="336.0px" class="d">  
   von sechs Monaten nach der Räumung durch den früheren
</text><text transform="translate(1474 6109)rotate(0)" textLength="302.0px" class="d">  
   Mieter oder Inhaber an einen nicht zum Eintritt in die
</text><text transform="translate(1483 6125)rotate(0)" textLength="285.0px" class="d">  
   Mietrechte des früheren Mieters Berechtigten; bei
</text><text transform="translate(1464 6142)rotate(0)" textLength="323.0px" class="d">  
   Durchführung von Verbesserungsarbeiten verlängert sich
</text><text transform="translate(1558 6158)rotate(0)" textLength="136.0px" class="d">  
   diese Frist um ein Jahr.
</text><polygon points=" 2704 5917 2364 5917 2364 6068 2704 6068 " class="a"/><polygon points=" 2704 6220 2364 6220 2364 6070 2704 6070 " class="a"/><polygon points=" 2704 5917 2789 6068 2704 6219 " class="a"/><polygon points=" 2364 5917 2279 6068 2364 6219 " class="a"/><polygon points=" 2704 5916 2364 5916 2364 6067 2704 6067 " class="a"/><polygon points=" 2704 6219 2364 6219 2364 6069 2704 6069 " class="a"/><polygon points=" 2704 5916 2789 6067 2704 6218 " class="a"/><polygon points=" 2364 5916 2279 6067 2364 6218 " class="a"/><polygon points=" 2703 5916 2363 5916 2363 6067 2703 6067 " class="b"/><polygon points=" 2703 6219 2363 6219 2363 6069 2703 6069 " class="b"/><polygon points=" 2703 5916 2788 6067 2703 6218 " class="b"/><polygon points=" 2363 5916 2278 6067 2363 6218 " class="b"/><polygon points=" 2703 5915 2363 5915 2363 6066 2703 6066 " class="b"/><polygon points=" 2703 6218 2363 6218 2363 6068 2703 6068 " class="b"/><polygon points=" 2703 5915 2788 6066 2703 6217 " class="b"/><polygon points=" 2363 5915 2278 6066 2363 6217 " class="b"/><polygon points=" 2702 5915 2362 5915 2362 6066 2702 6066 " class="c"/><polygon points=" 2702 6218 2362 6218 2362 6068 2702 6068 " class="e"/><polygon points=" 2702 5915 2787 6066 2702 6217 " class="f"/><polygon points=" 2362 5915 2277 6066 2362 6217 " class="g"/><text transform="translate(2411 5980)rotate(0)" textLength="244.0px" class="d">  
   20 Jahre vergangen seit Ende der Arbeiten
</text><text transform="translate(2516 5937)rotate(0)" textLength="32.0px" class="d">  
   § 46c
</text><text transform="translate(2376 6077)rotate(0)" textLength="313.0px" class="d">  
    Zeitraum von zwanzig Jahren nach dem Abschluß der
</text><text transform="translate(2408 6093)rotate(0)" textLength="248.0px" class="d">  
   Arbeiten zur Standardanhebung verstrichen
</text><polygon points=" 2109 7429 1712 7429 1712 7542 2109 7542 " class="a"/><polygon points=" 2109 7428 1712 7428 1712 7541 2109 7541 " class="a"/><polygon points=" 2108 7428 1711 7428 1711 7541 2108 7541 " class="b"/><polygon points=" 2108 7427 1711 7427 1711 7540 2108 7540 " class="b"/><polygon points=" 2107 7427 1710 7427 1710 7540 2107 7540 " class="c"/><text transform="translate(1857 7476)rotate(0)" textLength="103.0px" class="d">  
   Richtwertmietzins
</text><polygon points=" 2752 7429 2355 7429 2355 7542 2752 7542 " class="a"/><polygon points=" 2752 7428 2355 7428 2355 7541 2752 7541 " class="a"/><polygon points=" 2751 7428 2354 7428 2354 7541 2751 7541 " class="b"/><polygon points=" 2751 7427 2354 7427 2354 7540 2751 7540 " class="b"/><polygon points=" 2750 7427 2353 7427 2353 7540 2750 7540 " class="c"/><text transform="translate(2460 7476)rotate(0)" textLength="182.0px" class="d">  
   Kategoriemietzins D brauchbar&#x2F;
</text><text transform="translate(2507 7492)rotate(0)" textLength="89.0px" class="d">  
   nicht brauchbar
</text><polygon points=" 1467 7429 1070 7429 1070 7542 1467 7542 " class="a"/><polygon points=" 1467 7428 1070 7428 1070 7541 1467 7541 " class="a"/><polygon points=" 1466 7428 1069 7428 1069 7541 1466 7541 " class="b"/><polygon points=" 1466 7427 1069 7427 1069 7540 1466 7540 " class="b"/><polygon points=" 1465 7427 1068 7427 1068 7540 1465 7540 " class="c"/><text transform="translate(1196 7476)rotate(0)" textLength="140.0px" class="d">  
   Angemessener Mietzins
</text><polygon points=" 824 7429 427 7429 427 7542 824 7542 " class="a"/><polygon points=" 824 7428 427 7428 427 7541 824 7541 " class="a"/><polygon points=" 823 7428 426 7428 426 7541 823 7541 " class="b"/><polygon points=" 823 7427 426 7427 426 7540 823 7540 " class="b"/><polygon points=" 822 7427 425 7427 425 7540 822 7540 " class="c"/><text transform="translate(569 7476)rotate(0)" textLength="109.0px" class="d">  
   Freie Vereinbarung
</text><text transform="translate(1525 7836)rotate(0)" textLength="124.0px" class="d">  
   Ende Mietzinsbildung
</text><text transform="translate(1556 7852)rotate(0)" textLength="62.0px" class="d">  
   nach MRG
</text><path d="M624 7546L624 7652C624 7653 625 7654 626 7654L1586 7654C1587 7654 1587 7655 1587 7655L1587 7771" class="h"/><polygon points=" 1583 7763 1587 7771 1592 7763 " class="i"/><text transform="translate(1625 7733)rotate(0)" textLength="13.0px" class="d">  
   Ja
</text><path d="M1247 7546L1247 7652C1247 7653 1248 7654 1249 7654L1586 7654C1587 7654 1587 7655 1587 7655L1587 7771" class="h"/><polygon points=" 1583 7763 1587 7771 1592 7763 " class="i"/><path d="M1928 7546L1928 7652C1928 7653 1927 7654 1926 7654L1589 7654C1589 7654 1587 7655 1587 7655L1587 7771" class="h"/><polygon points=" 1583 7763 1587 7771 1592 7763 " class="i"/><path d="M2532 7546L2532 7652C2532 7653 2532 7654 2530 7654L1589 7654C1589 7654 1587 7655 1587 7655L1587 7771" class="h"/><polygon points=" 1583 7763 1587 7771 1592 7763 " class="i"/><path d="M372 1587L210 1587C209 1587 208 1589 208 1589L208 7236C208 7237 209 7238 210 7238L622 7238C623 7238 624 7239 624 7240L624 7421" class="h"/><polygon points=" 619 7414 624 7421 628 7414 " class="i"/><text transform="translate(661 7383)rotate(0)" textLength="13.0px" class="d">  
   Ja
</text><path d="M875 6935L1132 6935C1133 6935 1134 6935 1134 6934L1153 1325C1153 1324 1154 1323 1155 1323L1586 1323C1587 1323 1587 1324 1587 1325L1587 1412" class="h"/><polygon points=" 1583 1404 1587 1412 1592 1404 " class="i"/><text transform="translate(1625 1374)rotate(0)" textLength="26.0px" class="d">  
   Nein
</text><path d="M1886 6066L2058 6066C2059 6066 2060 6065 2060 6064L2060 5618 2060 5607 2060 5184 2060 5172 2060 1344C2060 1343 2061 1342 2062 1342L2530 1342C2532 1342 2532 1343 2532 1344L2532 1431" class="h"/><polygon points=" 2528 1423 2532 1431 2536 1423 " class="i"/><text transform="translate(2570 1393)rotate(0)" textLength="26.0px" class="d">  
   Nein
</text><path d="M2793 1587L3154 1587C3155 1587 3156 1589 3156 1589L3156 7330C3156 7332 3155 7332 3154 7332L2534 7332C2533 7332 2532 7333 2532 7334L2532 7421" class="h"/><polygon points=" 2528 7414 2532 7421 2536 7414 " class="i"/><text transform="translate(2570 7383)rotate(0)" textLength="26.0px" class="d">  
   Nein
</text><path d="M2793 2003L2946 2003C2947 2003 2948 2004 2948 2005L2948 7104C2948 7105 2947 7106 2946 7106L1929 7106C1929 7106 1928 7107 1928 7107L1928 7421" class="h"/><polygon points=" 1923 7414 1928 7421 1932 7414 " class="i"/><text transform="translate(1965 7383)rotate(0)" textLength="26.0px" class="d">  
   Nein
</text><path d="M875 6501L1132 6501C1133 6501 1134 6500 1134 6499L1153 1325C1153 1324 1154 1323 1155 1323L1586 1323C1587 1323 1587 1324 1587 1325L1587 1412" class="h"/><polygon points=" 1583 1404 1587 1412 1592 1404 " class="i"/><path d="M875 1606L1000 1606C1001 1606 1002 1607 1002 1608L1002 1793C1002 1795 1001 1795 1000 1795L607 1795C606 1795 605 1796 605 1797L605 1847" class="h"/><polygon points=" 601 1839 605 1847 609 1839 " class="i"/><text transform="translate(643 1809)rotate(0)" textLength="26.0px" class="d">  
   Nein
</text><path d="M875 2003L1000 2003C1001 2003 1002 2004 1002 2005L1002 2209C1002 2210 1001 2211 1000 2211L626 2211C625 2211 624 2212 624 2213L624 2300" class="h"/><polygon points=" 619 2293 624 2300 628 2293 " class="i"/><text transform="translate(661 2262)rotate(0)" textLength="26.0px" class="d">  
   Nein
</text><path d="M875 2457L1000 2457C1001 2457 1002 2458 1002 2459L1002 3608C1002 3609 1001 3609 1000 3609L644 3609C644 3609 643 3611 643 3611L643 3699" class="h"/><polygon points=" 638 3691 643 3699 647 3691 " class="i"/><text transform="translate(680 3661)rotate(0)" textLength="26.0px" class="d">  
   Nein
</text><path d="M875 2910L1000 2910C1001 2910 1002 2911 1002 2912L1002 3608C1002 3609 1001 3609 1000 3609L644 3609C644 3609 643 3611 643 3611L643 3699" class="h"/><polygon points=" 638 3691 643 3699 647 3691 " class="i"/><path d="M875 3364L1000 3364C1001 3364 1002 3365 1002 3366L1002 3608C1002 3609 1001 3609 1000 3609L644 3609C644 3609 643 3611 643 3611L643 3699" class="h"/><polygon points=" 638 3691 643 3699 647 3691 " class="i"/><path d="M875 3855L981 3855C982 3855 983 3856 983 3857L983 4061C983 4062 982 4063 981 4063L644 4063C644 4063 643 4064 643 4065L643 4133" class="h"/><polygon points=" 638 4126 643 4133 647 4126 " class="i"/><text transform="translate(680 4095)rotate(0)" textLength="26.0px" class="d">  
   Nein
</text><path d="M372 2003L210 2003C209 2003 208 2004 208 2005L208 7236C208 7237 209 7238 210 7238L622 7238C623 7238 624 7239 624 7240L624 7421" class="h"/><polygon points=" 619 7414 624 7421 628 7414 " class="i"/><path d="M372 2457L285 2457C285 2457 283 2458 283 2459L283 2682C283 2683 285 2683 285 2683L622 2683C623 2683 624 2685 624 2685L624 2754" class="h"/><polygon points=" 619 2746 624 2754 628 2746 " class="i"/><text transform="translate(661 2716)rotate(0)" textLength="13.0px" class="d">  
   Ja
</text><path d="M372 2910L304 2910C303 2910 302 2911 302 2912L302 3154C302 3155 303 3156 304 3156L641 3156C642 3156 643 3157 643 3158L643 3226" class="h"/><polygon points=" 638 3219 643 3226 647 3219 " class="i"/><text transform="translate(680 3188)rotate(0)" textLength="13.0px" class="d">  
   Ja
</text><path d="M372 3383L210 3383C209 3383 208 3384 208 3385L208 7236C208 7237 209 7238 210 7238L622 7238C623 7238 624 7239 624 7240L624 7421" class="h"/><polygon points=" 619 7414 624 7421 628 7414 " class="i"/><path d="M372 3855L210 3855C209 3855 208 3856 208 3857L208 7236C208 7237 209 7238 210 7238L622 7238C623 7238 624 7239 624 7240L624 7421" class="h"/><polygon points=" 619 7414 624 7421 628 7414 " class="i"/><path d="M391 4290L210 4290C209 4290 208 4291 208 4292L208 7236C208 7237 209 7238 210 7238L622 7238C623 7238 624 7239 624 7240L624 7421" class="h"/><polygon points=" 619 7414 624 7421 628 7414 " class="i"/><path d="M391 4743L323 4743C322 4743 321 4744 321 4745L321 4949C321 4950 322 4951 323 4951L641 4951C642 4951 643 4952 643 4953L643 5021" class="h"/><polygon points=" 638 5014 643 5021 647 5014 " class="i"/><text transform="translate(680 4984)rotate(0)" textLength="13.0px" class="d">  
   Ja
</text><path d="M391 5178L210 5178C209 5178 208 5179 208 5180L208 7236C208 7237 209 7238 210 7238L622 7238C623 7238 624 7239 624 7240L624 7421" class="h"/><polygon points=" 619 7414 624 7421 628 7414 " class="i"/><path d="M391 5613L210 5613C209 5613 208 5614 208 5614L208 7236C208 7237 209 7238 210 7238L622 7238C623 7238 624 7239 624 7240L624 7421" class="h"/><polygon points=" 619 7414 624 7421 628 7414 " class="i"/><path d="M372 6066L210 6066C209 6066 208 6067 208 6068L208 7236C208 7237 209 7238 210 7238L622 7238C623 7238 624 7239 624 7240L624 7421" class="h"/><polygon points=" 619 7414 624 7421 628 7414 " class="i"/><path d="M372 6501L285 6501C285 6501 283 6502 283 6503L283 6707C283 6708 285 6709 285 6709L641 6709C642 6709 643 6710 643 6711L643 6779" class="h"/><polygon points=" 638 6771 643 6779 647 6771 " class="i"/><text transform="translate(680 6741)rotate(0)" textLength="13.0px" class="d">  
   Ja
</text><path d="M372 6935L210 6935C209 6935 208 6937 208 6937L208 7236C208 7237 209 7238 210 7238L622 7238C623 7238 624 7239 624 7240L624 7421" class="h"/><polygon points=" 619 7414 624 7421 628 7414 " class="i"/><path d="M894 4290L981 4290C982 4290 983 4291 983 4292L983 4534C983 4535 982 4535 981 4535L626 4535C625 4535 624 4537 624 4537L624 4587" class="h"/><polygon points=" 619 4579 624 4587 628 4579 " class="i"/><text transform="translate(661 4549)rotate(0)" textLength="26.0px" class="d">  
   Nein
</text><path d="M894 4743L981 4743C982 4743 983 4744 983 4745L983 5384C983 5385 982 5386 981 5386L644 5386C644 5386 643 5387 643 5388L643 5456" class="h"/><polygon points=" 638 5449 643 5456 647 5449 " class="i"/><path d="M894 5178L981 5178C982 5178 983 5179 983 5180L983 5384C983 5385 982 5386 981 5386L644 5386C644 5386 643 5387 643 5388L643 5456" class="h"/><polygon points=" 638 5449 643 5456 647 5449 " class="i"/><text transform="translate(680 5418)rotate(0)" textLength="26.0px" class="d">  
   Nein
</text><path d="M894 5613L981 5613C982 5613 983 5614 983 5614L983 5837C983 5839 982 5839 981 5839L626 5839C625 5839 624 5841 624 5841L624 5910" class="h"/><polygon points=" 619 5902 624 5910 628 5902 " class="i"/><text transform="translate(661 5872)rotate(0)" textLength="26.0px" class="d">  
   Nein
</text><path d="M875 6066L981 6066C982 6066 983 6067 983 6068L983 6272C983 6273 982 6274 981 6274L626 6274C625 6274 624 6275 624 6276L624 6344" class="h"/><polygon points=" 619 6337 624 6344 628 6337 " class="i"/><text transform="translate(661 6307)rotate(0)" textLength="26.0px" class="d">  
   Nein
</text><path d="M1867 1569L1945 1569C1946 1569 1946 1570 1946 1570L1946 1793C1946 1795 1946 1795 1945 1795L1589 1795C1589 1795 1587 1796 1587 1797L1587 1847" class="h"/><polygon points=" 1583 1839 1587 1847 1592 1839 " class="i"/><text transform="translate(1625 1809)rotate(0)" textLength="26.0px" class="d">  
   Nein
</text><path d="M1848 2003L1945 2003C1946 2003 1946 2004 1946 2005L1946 2228C1946 2229 1946 2230 1945 2230L1589 2230C1589 2230 1587 2231 1587 2232L1587 2300" class="h"/><polygon points=" 1583 2293 1587 2300 1592 2293 " class="i"/><text transform="translate(1625 2262)rotate(0)" textLength="26.0px" class="d">  
   Nein
</text><path d="M1848 2457L1945 2457C1946 2457 1946 2458 1946 2459L1946 2682C1946 2683 1946 2683 1945 2683L1589 2683C1589 2683 1587 2685 1587 2685L1587 2754" class="h"/><polygon points=" 1583 2746 1587 2754 1592 2746 " class="i"/><text transform="translate(1625 2716)rotate(0)" textLength="26.0px" class="d">  
   Nein
</text><path d="M1867 2910L1945 2910C1946 2910 1946 2911 1946 2912L1946 3626C1946 3628 1946 3628 1945 3628L1589 3628C1589 3628 1587 3629 1587 3630L1587 3699" class="h"/><polygon points=" 1583 3691 1587 3699 1592 3691 " class="i"/><path d="M1867 3383L1945 3383C1946 3383 1946 3384 1946 3385L1946 3626C1946 3628 1946 3628 1945 3628L1589 3628C1589 3628 1587 3629 1587 3630L1587 3699" class="h"/><polygon points=" 1583 3691 1587 3699 1592 3691 " class="i"/><text transform="translate(1625 3661)rotate(0)" textLength="26.0px" class="d">  
   Nein
</text><path d="M1867 3855L1926 3855C1927 3855 1928 3856 1928 3857L1928 4949C1928 4950 1927 4951 1926 4951L1589 4951C1589 4951 1587 4952 1587 4953L1587 5021" class="h"/><polygon points=" 1583 5014 1587 5021 1592 5014 " class="i"/><text transform="translate(1625 4984)rotate(0)" textLength="26.0px" class="d">  
   Nein
</text><path d="M1867 4309L1926 4309C1927 4309 1928 4310 1928 4311L1928 4949C1928 4950 1927 4951 1926 4951L1589 4951C1589 4951 1587 4952 1587 4953L1587 5021" class="h"/><polygon points=" 1583 5014 1587 5021 1592 5014 " class="i"/><path d="M1867 4743L1926 4743C1927 4743 1928 4744 1928 4745L1928 4949C1928 4950 1927 4951 1926 4951L1589 4951C1589 4951 1587 4952 1587 4953L1587 5021" class="h"/><polygon points=" 1583 5014 1587 5021 1592 5014 " class="i"/><path d="M1867 5178L2054 5178C2054 5175 2057 5172 2060 5172 2063 5172 2066 5175 2066 5178L2152 5178C2154 5178 2154 5177 2154 5176L2154 3630C2154 3629 2155 3628 2156 3628L2186 3628 2198 3628 2549 3628C2550 3628 2551 3629 2551 3630L2551 3699" class="h"/><polygon points=" 2547 3691 2551 3699 2555 3691 " class="i"/><text transform="translate(2589 3661)rotate(0)" textLength="26.0px" class="d">  
   Nein
</text><path d="M1886 5613L2054 5613C2054 5610 2057 5607 2060 5607 2063 5607 2066 5610 2066 5613L2152 5613C2154 5613 2154 5612 2154 5611L2154 3630C2154 3629 2155 3628 2156 3628L2186 3628 2198 3628 2549 3628C2550 3628 2551 3629 2551 3630L2551 3699" class="h"/><polygon points=" 2547 3691 2551 3699 2555 3691 " class="i"/><path d="M1346 5197L1287 5197C1286 5197 1285 5198 1285 5199L1285 5403C1285 5404 1286 5405 1287 5405L1586 5405C1587 5405 1587 5406 1587 5407L1587 5456" class="h"/><polygon points=" 1583 5449 1587 5456 1592 5449 " class="i"/><text transform="translate(1625 5418)rotate(0)" textLength="13.0px" class="d">  
   Ja
</text><path d="M1364 5613L1306 5613C1305 5613 1304 5614 1304 5614L1304 5837C1304 5839 1305 5839 1306 5839L1586 5839C1587 5839 1587 5841 1587 5841L1587 5910" class="h"/><polygon points=" 1583 5902 1587 5910 1592 5902 " class="i"/><text transform="translate(1625 5872)rotate(0)" textLength="13.0px" class="d">  
   Ja
</text><path d="M1346 1569L1249 1569C1248 1569 1247 1570 1247 1570L1247 7421" class="h"/><polygon points=" 1243 7414 1247 7421 1251 7414 " class="i"/><text transform="translate(1285 7383)rotate(0)" textLength="13.0px" class="d">  
   Ja
</text><path d="M1346 2910L1306 2910C1305 2910 1304 2911 1304 2912L1304 3116C1304 3117 1305 3118 1306 3118L1586 3118C1587 3118 1587 3119 1587 3120L1587 3226" class="h"/><polygon points=" 1583 3219 1587 3226 1592 3219 " class="i"/><text transform="translate(1625 3188)rotate(0)" textLength="13.0px" class="d">  
   Ja
</text><path d="M1346 3855L1306 3855C1305 3855 1304 3856 1304 3857L1304 4099C1304 4100 1305 4101 1306 4101L1586 4101C1587 4101 1587 4102 1587 4103L1587 4152" class="h"/><polygon points=" 1583 4145 1587 4152 1592 4145 " class="i"/><text transform="translate(1625 4114)rotate(0)" textLength="13.0px" class="d">  
   Ja
</text><path d="M1327 2022L1249 2022C1248 2022 1247 2023 1247 2024L1247 7421" class="h"/><polygon points=" 1243 7414 1247 7421 1251 7414 " class="i"/><path d="M1327 2457L1249 2457C1248 2457 1247 2458 1247 2459L1247 7421" class="h"/><polygon points=" 1243 7414 1247 7421 1251 7414 " class="i"/><path d="M1346 3364L1249 3364C1248 3364 1247 3365 1247 3366L1247 7421" class="h"/><polygon points=" 1243 7414 1247 7421 1251 7414 " class="i"/><path d="M1346 4328L1249 4328C1248 4328 1247 4329 1247 4329L1247 7421" class="h"/><polygon points=" 1243 7414 1247 7421 1251 7414 " class="i"/><path d="M1346 4743L1249 4743C1248 4743 1247 4744 1247 4745L1247 7421" class="h"/><polygon points=" 1243 7414 1247 7421 1251 7414 " class="i"/><path d="M1364 6085L1249 6085C1248 6085 1247 6086 1247 6087L1247 7421" class="h"/><polygon points=" 1243 7414 1247 7421 1251 7414 " class="i"/><path d="M2271 1587L2175 1587C2174 1587 2173 1589 2173 1589L2173 1774C2173 1776 2174 1776 2175 1776L2549 1776C2550 1776 2551 1778 2551 1778L2551 1847" class="h"/><polygon points=" 2547 1839 2551 1847 2555 1839 " class="i"/><text transform="translate(2589 1809)rotate(0)" textLength="13.0px" class="d">  
   Ja
</text><path d="M2271 2003L2213 2003C2212 2003 2211 2004 2211 2005L2211 2228C2211 2229 2212 2230 2213 2230L2549 2230C2550 2230 2551 2231 2551 2232L2551 2300" class="h"/><polygon points=" 2547 2293 2551 2300 2555 2293 " class="i"/><text transform="translate(2589 2262)rotate(0)" textLength="13.0px" class="d">  
   Ja
</text><path d="M2793 2457L2871 2457C2872 2457 2872 2458 2872 2459L2872 2663C2872 2664 2872 2665 2871 2665L2534 2665C2533 2665 2532 2666 2532 2666L2532 2754" class="h"/><polygon points=" 2528 2746 2532 2754 2536 2746 " class="i"/><text transform="translate(2570 2716)rotate(0)" textLength="26.0px" class="d">  
   Nein
</text><path d="M2793 2929L2852 2929C2853 2929 2854 2930 2854 2931L2854 3154C2854 3155 2853 3156 2852 3156L2534 3156C2533 3156 2532 3157 2532 3158L2532 3245" class="h"/><polygon points=" 2528 3238 2532 3245 2536 3238 " class="i"/><text transform="translate(2570 3207)rotate(0)" textLength="26.0px" class="d">  
   Nein
</text><path d="M2793 3402L2946 3402C2947 3402 2948 3403 2948 3403L2948 7104C2948 7105 2947 7106 2946 7106L1929 7106C1929 7106 1928 7107 1928 7107L1928 7421" class="h"/><polygon points=" 1923 7414 1928 7421 1932 7414 " class="i"/><path d="M2793 3855L2946 3855C2947 3855 2948 3856 2948 3857L2948 7104C2948 7105 2947 7106 2946 7106L1929 7106C1929 7106 1928 7107 1928 7107L1928 7421" class="h"/><polygon points=" 1923 7414 1928 7421 1932 7414 " class="i"/><path d="M2793 4309L2871 4309C2872 4309 2872 4310 2872 4311L2872 4534C2872 4535 2872 4535 2871 4535L2534 4535C2533 4535 2532 4537 2532 4537L2532 4606" class="h"/><polygon points=" 2528 4598 2532 4606 2536 4598 " class="i"/><text transform="translate(2570 4568)rotate(0)" textLength="26.0px" class="d">  
   Nein
</text><path d="M2793 4762L2871 4762C2872 4762 2872 4763 2872 4764L2872 4968C2872 4969 2872 4970 2871 4970L2534 4970C2533 4970 2532 4971 2532 4972L2532 5021" class="h"/><polygon points=" 2528 5014 2532 5021 2536 5014 " class="i"/><text transform="translate(2570 4984)rotate(0)" textLength="26.0px" class="d">  
   Nein
</text><path d="M2793 5178L2946 5178C2947 5178 2948 5179 2948 5180L2948 7104C2948 7105 2947 7106 2946 7106L1929 7106C1929 7106 1928 7107 1928 7107L1928 7421" class="h"/><polygon points=" 1923 7414 1928 7421 1932 7414 " class="i"/><path d="M2793 5613L2946 5613C2947 5613 2948 5614 2948 5614L2948 7104C2948 7105 2947 7106 2946 7106L1929 7106C1929 7106 1928 7107 1928 7107L1928 7421" class="h"/><polygon points=" 1923 7414 1928 7421 1932 7414 " class="i"/><path d="M2793 6066L2946 6066C2947 6066 2948 6067 2948 6068L2948 7104C2948 7105 2947 7106 2946 7106L1929 7106C1929 7106 1928 7107 1928 7107L1928 7421" class="h"/><polygon points=" 1923 7414 1928 7421 1932 7414 " class="i"/><path d="M2271 6066L2175 6066C2174 6066 2173 6067 2173 6068L2173 6934C2173 6935 2172 6935 2171 6935L1249 6935C1248 6935 1247 6937 1247 6937L1247 7421" class="h"/><polygon points=" 1243 7414 1247 7421 1251 7414 " class="i"/><text transform="translate(1285 7383)rotate(0)" textLength="13.0px" class="d">  
   Ja
</text><path d="M2271 5613L2232 5613C2231 5613 2230 5614 2230 5614L2230 5837C2230 5839 2231 5839 2232 5839L2549 5839C2550 5839 2551 5841 2551 5841L2551 5910" class="h"/><polygon points=" 2547 5902 2551 5910 2555 5902 " class="i"/><text transform="translate(2589 5872)rotate(0)" textLength="13.0px" class="d">  
   Ja
</text><path d="M2271 2457L2194 2457C2193 2457 2192 2458 2192 2459L2192 3623C2195 3623 2198 3626 2198 3628 2198 3631 2195 3634 2192 3634L2192 5384C2192 5385 2193 5386 2194 5386L2549 5386C2550 5386 2551 5387 2551 5388L2551 5456" class="h"/><polygon points=" 2547 5449 2551 5456 2555 5449 " class="i"/><path d="M2271 2910L2194 2910C2193 2910 2192 2911 2192 2912L2192 3623C2195 3623 2198 3626 2198 3628 2198 3631 2195 3634 2192 3634L2192 5384C2192 5385 2193 5386 2194 5386L2549 5386C2550 5386 2551 5387 2551 5388L2551 5456" class="h"/><polygon points=" 2547 5449 2551 5456 2555 5449 " class="i"/><path d="M2271 3402L2194 3402C2193 3402 2192 3403 2192 3403L2192 3623C2195 3623 2198 3626 2198 3628 2198 3631 2195 3634 2192 3634L2192 5384C2192 5385 2193 5386 2194 5386L2549 5386C2550 5386 2551 5387 2551 5388L2551 5456" class="h"/><polygon points=" 2547 5449 2551 5456 2555 5449 " class="i"/><path d="M2271 3855L2251 3855C2250 3855 2249 3856 2249 3857L2249 4080C2249 4081 2250 4082 2251 4082L2530 4082C2532 4082 2532 4083 2532 4084L2532 4152" class="h"/><polygon points=" 2528 4145 2532 4152 2536 4145 " class="i"/><text transform="translate(2570 4114)rotate(0)" textLength="13.0px" class="d">  
   Ja
</text><path d="M2271 4309L2194 4309C2193 4309 2192 4310 2192 4311L2192 5384C2192 5385 2193 5386 2194 5386L2549 5386C2550 5386 2551 5387 2551 5388L2551 5456" class="h"/><polygon points=" 2547 5449 2551 5456 2555 5449 " class="i"/><path d="M2271 4762L2194 4762C2193 4762 2192 4763 2192 4764L2192 5384C2192 5385 2193 5386 2194 5386L2549 5386C2550 5386 2551 5387 2551 5388L2551 5456" class="h"/><polygon points=" 2547 5449 2551 5456 2555 5449 " class="i"/><path d="M2271 5178L2194 5178C2193 5178 2192 5179 2192 5180L2192 5384C2192 5385 2193 5386 2194 5386L2549 5386C2550 5386 2551 5387 2551 5388L2551 5456" class="h"/><polygon points=" 2547 5449 2551 5456 2555 5449 " class="i"/><text transform="translate(2589 5418)rotate(0)" textLength="13.0px" class="d">  
   Ja
</text><polygon points=" 903 229 575 229 575 380 903 380 " class="a"/><polygon points=" 903 532 575 532 575 382 903 382 " class="a"/><polygon points=" 903 229 985 380 903 530 " class="a"/><polygon points=" 575 229 493 380 575 530 " class="a"/><polygon points=" 903 228 575 228 575 379 903 379 " class="a"/><polygon points=" 903 531 575 531 575 381 903 381 " class="a"/><polygon points=" 903 228 985 379 903 529 " class="a"/><polygon points=" 575 228 493 379 575 529 " class="a"/><polygon points=" 902 228 574 228 574 379 902 379 " class="b"/><polygon points=" 902 531 574 531 574 381 902 381 " class="b"/><polygon points=" 902 228 984 379 902 529 " class="b"/><polygon points=" 574 228 492 379 574 529 " class="b"/><polygon points=" 902 227 574 227 574 378 902 378 " class="b"/><polygon points=" 902 530 574 530 574 380 902 380 " class="b"/><polygon points=" 902 227 984 378 902 528 " class="b"/><polygon points=" 574 227 492 378 574 528 " class="b"/><polygon points=" 901 227 573 227 573 378 901 378 " class="c"/><polygon points=" 901 530 573 530 573 380 901 380 " class="e"/><polygon points=" 901 227 983 378 901 528 " class="f"/><polygon points=" 573 227 491 378 573 528 " class="g"/><text transform="translate(608 292)rotate(0)" textLength="258.0px" class="d">  
   Sozialpädagogisch betreutes Wohnen-31800
</text><text transform="translate(714 249)rotate(0)" textLength="47.0px" class="d">  
   § 1&#x2F;2 1a
</text><text transform="translate(582 389)rotate(0)" textLength="310.0px" class="d">  
   Wohnungen ode Wohnräume, die von einer karitativen
</text><text transform="translate(614 405)rotate(0)" textLength="247.0px" class="d">  
   oder humanitären Organisation im Rahmen
</text><text transform="translate(575 421)rotate(0)" textLength="325.0px" class="d">  
   sozialpädagogisch betreuten Wohnens vermietet werden
</text></svg>