<?xml version="1.0" encoding="UTF-8" standalone="no"?>
<svg width="352.0px" height="799.0px" version="1.1" xmlns="http://www.w3.org/2000/svg" xmlns:xlink="http://www.w3.org/1999/xlink">
<g>
<rect x="0.0px" y="0.0px" width="352.0px" height="799.0px" rx="0.0px" ry="0.0px" style="fill:rgb(255,255,255);"/>
<polygon points=" 192.0,8.0 128.0,8.0 128.0,30.0 192.0,30.0 " style="fill:none; stroke:rgb(219,219,219); stroke-width:1.0px;"/>
<polygon points=" 192.0,7.0 128.0,7.0 128.0,29.0 192.0,29.0 " style="fill:none; stroke:rgb(219,219,219); stroke-width:1.0px;"/>
<polygon points=" 191.0,7.0 127.0,7.0 127.0,29.0 191.0,29.0 " style="fill:rgb(255,165,0); stroke:rgb(0,0,0); stroke-width:1.0px;"/>
<text transform="translate(154.0,12.0), rotate(-0.0)" x="0px" y="0px" textLength="9.0px"
 style="font-family:Arial; font-size:1.0px; fill:rgb(0,0,0); stroke:none; baseline-shift:-2.0px; ">
   Mietzinsbildung
</text>
<ellipse cx="272.5px" cy="89.5px" rx="12.0px" ry="10.0px" style="fill:rgb(255,165,0); stroke:rgb(0,0,0); stroke-width:1.0px;"/>
<text transform="translate(262.0,88.0), rotate(-0.0)" x="0px" y="0px" textLength="21.0px"
 style="font-family:Arial; font-size:1.0px; fill:rgb(0,0,0); stroke:none; baseline-shift:-2.0px; ">
   Bei Geschäftslokale kommen andere
</text>
<text transform="translate(263.0,89.0), rotate(-0.0)" x="0px" y="0px" textLength="18.0px"
 style="font-family:Arial; font-size:1.0px; fill:rgb(0,0,0); stroke:none; baseline-shift:-2.0px; ">
   Rechtsvorschriften zur Auswahl
</text>
<polygon points=" 176.0,131.0 143.0,131.0 143.0,146.0 176.0,146.0 " style="fill:none; stroke:rgb(219,219,219); stroke-width:1.0px;"/>
<polygon points=" 176.0,162.0 143.0,162.0 143.0,147.0 176.0,147.0 " style="fill:none; stroke:rgb(219,219,219); stroke-width:1.0px;"/>
<polygon points=" 176.0,131.0 184.0,146.0 176.0,162.0 " style="fill:none; stroke:rgb(219,219,219); stroke-width:1.0px;"/>
<polygon points=" 143.0,131.0 135.0,146.0 143.0,162.0 " style="fill:none; stroke:rgb(219,219,219); stroke-width:1.0px;"/>
<polygon points=" 176.0,130.0 143.0,130.0 143.0,145.0 176.0,145.0 " style="fill:none; stroke:rgb(219,219,219); stroke-width:1.0px;"/>
<polygon points=" 176.0,161.0 143.0,161.0 143.0,146.0 176.0,146.0 " style="fill:none; stroke:rgb(219,219,219); stroke-width:1.0px;"/>
<polygon points=" 176.0,130.0 184.0,145.0 176.0,161.0 " style="fill:none; stroke:rgb(219,219,219); stroke-width:1.0px;"/>
<polygon points=" 143.0,130.0 135.0,145.0 143.0,161.0 " style="fill:none; stroke:rgb(219,219,219); stroke-width:1.0px;"/>
<polygon points=" 175.0,130.0 142.0,130.0 142.0,145.0 175.0,145.0 " style="fill:rgb(255,165,0); stroke:rgb(0,0,0); stroke-width:1.0px;"/>
<polygon points=" 175.0,161.0 142.0,161.0 142.0,146.0 175.0,146.0 " style="fill:rgb(190,190,190); stroke:rgb(0,0,0); stroke-width:1.0px;"/>
<polygon points=" 175.0,130.0 183.0,145.0 175.0,161.0 " style="fill:rgb(255,255,255); stroke:rgb(0,0,0); stroke-width:1.0px;"/>
<polygon points=" 142.0,130.0 134.0,145.0 142.0,161.0 " style="fill:rgb(255,0,0); stroke:rgb(0,0,0); stroke-width:1.0px;"/>
<text transform="translate(148.0,137.0), rotate(-0.0)" x="0px" y="0px" textLength="22.0px"
 style="font-family:Arial; font-size:1.0px; fill:rgb(0,0,0); stroke:none; baseline-shift:-2.0px; ">
   Sozialpädagogisch betreutes Wohnen
</text>
<text transform="translate(156.0,133.0), rotate(-0.0)" x="0px" y="0px" textLength="5.0px"
 style="font-family:Arial; font-size:1.0px; fill:rgb(0,0,0); stroke:none; baseline-shift:-2.0px; ">
   § 1/2 1a
</text>
<text transform="translate(143.0,147.0), rotate(-0.0)" x="0px" y="0px" textLength="31.0px"
 style="font-family:Arial; font-size:1.0px; fill:rgb(0,0,0); stroke:none; baseline-shift:-2.0px; ">
   Wohnungen ode Wohnräume, die von einer karitativen
</text>
<text transform="translate(146.0,148.0), rotate(-0.0)" x="0px" y="0px" textLength="25.0px"
 style="font-family:Arial; font-size:1.0px; fill:rgb(0,0,0); stroke:none; baseline-shift:-2.0px; ">
   oder humanitären Organisation im Rahmen
</text>
<text transform="translate(143.0,150.0), rotate(-0.0)" x="0px" y="0px" textLength="32.0px"
 style="font-family:Arial; font-size:1.0px; fill:rgb(0,0,0); stroke:none; baseline-shift:-2.0px; ">
   sozialpädagogisch betreuten Wohnens vermietet werden
</text>
<ellipse cx="159.5px" cy="57.5px" rx="21.5px" ry="11.0px" style="fill:rgb(255,165,0); stroke:rgb(0,0,0); stroke-width:1.0px;"/>
<text transform="translate(152.0,56.0), rotate(-0.0)" x="0px" y="0px" textLength="13.0px"
 style="font-family:Arial; font-size:1.0px; fill:rgb(0,0,0); stroke:none; baseline-shift:-2.0px; ">
   Beginn Mietzinsbildung
</text>
<text transform="translate(156.0,57.0), rotate(-0.0)" x="0px" y="0px" textLength="6.0px"
 style="font-family:Arial; font-size:1.0px; fill:rgb(0,0,0); stroke:none; baseline-shift:-2.0px; ">
   nach MRG
</text>
<polygon points=" 181.0,90.0 172.0,78.0 147.0,78.0 139.0,90.0 147.0,101.0 164.0,101.0 172.0,101.0 " style="fill:none; stroke:rgb(219,219,219); stroke-width:1.0px;"/>
<polygon points=" 181.0,89.0 172.0,77.0 147.0,77.0 139.0,89.0 147.0,100.0 164.0,100.0 172.0,100.0 " style="fill:none; stroke:rgb(219,219,219); stroke-width:1.0px;"/>
<polygon points=" 180.0,89.0 171.0,77.0 146.0,77.0 138.0,89.0 146.0,100.0 163.0,100.0 171.0,100.0 " style="fill:rgb(255,165,0); stroke:rgb(0,0,0); stroke-width:1.0px;"/>
<text transform="translate(156.0,88.0), rotate(-0.0)" x="0px" y="0px" textLength="5.0px"
 style="font-family:Arial; font-size:1.0px; fill:rgb(0,0,0); stroke:none; baseline-shift:-2.0px; ">
   Wohnung
</text>
<polygon points=" 176.0,173.0 143.0,173.0 143.0,188.0 176.0,188.0 " style="fill:none; stroke:rgb(219,219,219); stroke-width:1.0px;"/>
<polygon points=" 176.0,203.0 143.0,203.0 143.0,188.0 176.0,188.0 " style="fill:none; stroke:rgb(219,219,219); stroke-width:1.0px;"/>
<polygon points=" 176.0,173.0 184.0,188.0 176.0,203.0 " style="fill:none; stroke:rgb(219,219,219); stroke-width:1.0px;"/>
<polygon points=" 143.0,173.0 135.0,188.0 143.0,203.0 " style="fill:none; stroke:rgb(219,219,219); stroke-width:1.0px;"/>
<polygon points=" 176.0,172.0 143.0,172.0 143.0,187.0 176.0,187.0 " style="fill:none; stroke:rgb(219,219,219); stroke-width:1.0px;"/>
<polygon points=" 176.0,202.0 143.0,202.0 143.0,187.0 176.0,187.0 " style="fill:none; stroke:rgb(219,219,219); stroke-width:1.0px;"/>
<polygon points=" 176.0,172.0 184.0,187.0 176.0,202.0 " style="fill:none; stroke:rgb(219,219,219); stroke-width:1.0px;"/>
<polygon points=" 143.0,172.0 135.0,187.0 143.0,202.0 " style="fill:none; stroke:rgb(219,219,219); stroke-width:1.0px;"/>
<polygon points=" 175.0,172.0 142.0,172.0 142.0,187.0 175.0,187.0 " style="fill:rgb(255,165,0); stroke:rgb(0,0,0); stroke-width:1.0px;"/>
<polygon points=" 175.0,202.0 142.0,202.0 142.0,187.0 175.0,187.0 " style="fill:rgb(190,190,190); stroke:rgb(0,0,0); stroke-width:1.0px;"/>
<polygon points=" 175.0,172.0 183.0,187.0 175.0,202.0 " style="fill:rgb(255,255,255); stroke:rgb(0,0,0); stroke-width:1.0px;"/>
<polygon points=" 142.0,172.0 134.0,187.0 142.0,202.0 " style="fill:rgb(255,0,0); stroke:rgb(0,0,0); stroke-width:1.0px;"/>
<text transform="translate(149.0,178.0), rotate(-0.0)" x="0px" y="0px" textLength="19.0px"
 style="font-family:Arial; font-size:1.0px; fill:rgb(0,0,0); stroke:none; baseline-shift:-2.0px; ">
   Dienst-, Natural-, Werkswohnung
</text>
<text transform="translate(157.0,174.0), rotate(-0.0)" x="0px" y="0px" textLength="4.0px"
 style="font-family:Arial; font-size:1.0px; fill:rgb(0,0,0); stroke:none; baseline-shift:-2.0px; ">
   § 1/2/2
</text>
<text transform="translate(144.0,188.0), rotate(-0.0)" x="0px" y="0px" textLength="30.0px"
 style="font-family:Arial; font-size:1.0px; fill:rgb(0,0,0); stroke:none; baseline-shift:-2.0px; ">
   Wohnungen, die auf Grund eines Dienstverhältnisses
</text>
<text transform="translate(143.0,190.0), rotate(-0.0)" x="0px" y="0px" textLength="32.0px"
 style="font-family:Arial; font-size:1.0px; fill:rgb(0,0,0); stroke:none; baseline-shift:-2.0px; ">
   oder im Zusammenhang mit einem solchen als Dienst,-
</text>
<text transform="translate(145.0,191.0), rotate(-0.0)" x="0px" y="0px" textLength="28.0px"
 style="font-family:Arial; font-size:1.0px; fill:rgb(0,0,0); stroke:none; baseline-shift:-2.0px; ">
   Natural- oder Werkswohnung überlassen werden.
</text>
<path d="M 159.0 30.0 L 159.0 45.0" style="fill:none; stroke:rgb(0,0,0); stroke-width:1.0px;"/>
<polygon points=" 158.0,44.0 159.0,45.0 159.0,44.0 " style="fill:rgb(0,0,0); stroke:rgb(0,0,0); stroke-width:1.0px;"/>
<path d="M 159.0 69.0 L 159.0 77.0" style="fill:none; stroke:rgb(0,0,0); stroke-width:1.0px;"/>
<polygon points=" 158.0,76.0 159.0,77.0 159.0,76.0 " style="fill:rgb(0,0,0); stroke:rgb(0,0,0); stroke-width:1.0px;"/>
<path d="M 180.0 89.0 L 259.0 89.0" style="fill:none; stroke:rgb(0,0,0); stroke-width:1.0px;"/>
<polygon points=" 259.0,89.0 259.0,89.0 259.0,88.0 " style="fill:rgb(0,0,0); stroke:rgb(0,0,0); stroke-width:1.0px;"/>
<text transform="translate(255.0,85.0), rotate(-0.0)" x="0px" y="0px" textLength="3.0px"
 style="font-family:Arial; font-size:1.0px; fill:rgb(0,0,0); stroke:none; baseline-shift:-2.0px; ">
   Nein
</text>
<path d="M 159.0 101.0 L 159.0 130.0" style="fill:none; stroke:rgb(0,0,0); stroke-width:1.0px;"/>
<polygon points=" 158.0,129.0 159.0,130.0 159.0,129.0 " style="fill:rgb(0,0,0); stroke:rgb(0,0,0); stroke-width:1.0px;"/>
<text transform="translate(163.0,126.0), rotate(-0.0)" x="0px" y="0px" textLength="1.0px"
 style="font-family:Arial; font-size:1.0px; fill:rgb(0,0,0); stroke:none; baseline-shift:-2.0px; ">
   Ja
</text>
<ellipse cx="159.5px" cy="784.5px" rx="21.5px" ry="6.5px" style="fill:rgb(255,165,0); stroke:rgb(0,0,0); stroke-width:1.0px;"/>
<text transform="translate(153.0,784.0), rotate(-0.0)" x="0px" y="0px" textLength="12.0px"
 style="font-family:Arial; font-size:1.0px; fill:rgb(0,0,0); stroke:none; baseline-shift:-2.0px; ">
   Ende Mietzinsbildung
</text>
<text transform="translate(156.0,785.0), rotate(-0.0)" x="0px" y="0px" textLength="6.0px"
 style="font-family:Arial; font-size:1.0px; fill:rgb(0,0,0); stroke:none; baseline-shift:-2.0px; ">
   nach MRG
</text>
<path d="M 184.0 147.0 L 196.0 147.0 C 196.0 147.0 197.0 148.0 197.0 148.0 L 197.0 166.0 C 197.0 166.0 196.0 166.0 196.0 166.0 L 157.0 166.0 C 157.0 166.0 157.0 166.0 157.0 166.0 L 157.0 171.0" style="fill:none; stroke:rgb(0,0,0); stroke-width:1.0px;"/>
<polygon points=" 156.0,171.0 157.0,171.0 157.0,171.0 " style="fill:rgb(0,0,0); stroke:rgb(0,0,0); stroke-width:1.0px;"/>
<text transform="translate(161.0,168.0), rotate(-0.0)" x="0px" y="0px" textLength="3.0px"
 style="font-family:Arial; font-size:1.0px; fill:rgb(0,0,0); stroke:none; baseline-shift:-2.0px; ">
   Nein
</text>
<polygon points=" 91.0,24.0 58.0,24.0 58.0,39.0 91.0,39.0 " style="fill:none; stroke:rgb(219,219,219); stroke-width:1.0px;"/>
<polygon points=" 91.0,54.0 58.0,54.0 58.0,39.0 91.0,39.0 " style="fill:none; stroke:rgb(219,219,219); stroke-width:1.0px;"/>
<polygon points=" 91.0,24.0 99.0,39.0 91.0,54.0 " style="fill:none; stroke:rgb(219,219,219); stroke-width:1.0px;"/>
<polygon points=" 58.0,24.0 50.0,39.0 58.0,54.0 " style="fill:none; stroke:rgb(219,219,219); stroke-width:1.0px;"/>
<polygon points=" 91.0,23.0 58.0,23.0 58.0,38.0 91.0,38.0 " style="fill:none; stroke:rgb(219,219,219); stroke-width:1.0px;"/>
<polygon points=" 91.0,53.0 58.0,53.0 58.0,38.0 91.0,38.0 " style="fill:none; stroke:rgb(219,219,219); stroke-width:1.0px;"/>
<polygon points=" 91.0,23.0 99.0,38.0 91.0,53.0 " style="fill:none; stroke:rgb(219,219,219); stroke-width:1.0px;"/>
<polygon points=" 58.0,23.0 50.0,38.0 58.0,53.0 " style="fill:none; stroke:rgb(219,219,219); stroke-width:1.0px;"/>
<polygon points=" 90.0,23.0 57.0,23.0 57.0,38.0 90.0,38.0 " style="fill:rgb(255,165,0); stroke:rgb(0,0,0); stroke-width:1.0px;"/>
<polygon points=" 90.0,53.0 57.0,53.0 57.0,38.0 90.0,38.0 " style="fill:rgb(190,190,190); stroke:rgb(0,0,0); stroke-width:1.0px;"/>
<polygon points=" 90.0,23.0 98.0,38.0 90.0,53.0 " style="fill:rgb(255,255,255); stroke:rgb(0,0,0); stroke-width:1.0px;"/>
<polygon points=" 57.0,23.0 49.0,38.0 57.0,53.0 " style="fill:rgb(255,0,0); stroke:rgb(0,0,0); stroke-width:1.0px;"/>
<text transform="translate(61.0,29.0), rotate(-0.0)" x="0px" y="0px" textLength="26.0px"
 style="font-family:Arial; font-size:1.0px; fill:rgb(0,0,0); stroke:none; baseline-shift:-2.0px; ">
   Sozialpädagogisch betreutes Wohnen-31800
</text>
<text transform="translate(71.0,25.0), rotate(-0.0)" x="0px" y="0px" textLength="5.0px"
 style="font-family:Arial; font-size:1.0px; fill:rgb(0,0,0); stroke:none; baseline-shift:-2.0px; ">
   § 1/2 1a
</text>
<text transform="translate(58.0,39.0), rotate(-0.0)" x="0px" y="0px" textLength="31.0px"
 style="font-family:Arial; font-size:1.0px; fill:rgb(0,0,0); stroke:none; baseline-shift:-2.0px; ">
   Wohnungen ode Wohnräume, die von einer karitativen
</text>
<text transform="translate(61.0,40.0), rotate(-0.0)" x="0px" y="0px" textLength="25.0px"
 style="font-family:Arial; font-size:1.0px; fill:rgb(0,0,0); stroke:none; baseline-shift:-2.0px; ">
   oder humanitären Organisation im Rahmen
</text>
<text transform="translate(57.0,42.0), rotate(-0.0)" x="0px" y="0px" textLength="32.0px"
 style="font-family:Arial; font-size:1.0px; fill:rgb(0,0,0); stroke:none; baseline-shift:-2.0px; ">
   sozialpädagogisch betreuten Wohnens vermietet werden
</text>
</g>
</svg>
