<svg width="6993" height="5126" xmlns="http://www.w3.org/2000/svg">
  <rect width="6993" height="5126" rx="0" ry="0" fill="#fff"/>
  <path fill="none" stroke="#dbdbdb" stroke-width="7" d="M3933 588H2648v453h1285z"/>
  <path fill="none" stroke="#dbdbdb" stroke-width="7" d="M3933 587H2648v453h1285z"/>
  <path fill="none" stroke="#a9a9a9" stroke-width="7" d="M3932 587H2647v453h1285z"/>
  <path fill="none" stroke="#a9a9a9" stroke-width="7" d="M3932 586H2647v453h1285z"/>
  <path fill="orange" stroke="#000" stroke-width="7" d="M3931 586H2646v453h1285z"/>
  <text transform="translate(3198 699)" textLength="180" font-family="Arial" font-size="26" baseline-shift="-25">
    Mietzinsbildung
  </text>
  <ellipse cx="5556" cy="2230" rx="245.5" ry="207.5" fill="orange" stroke="#000" stroke-width="7"/>
  <text transform="translate(5343 2210)" textLength="426" font-family="Arial" font-size="26" baseline-shift="-25">
    Bei Geschäftslokale kommen andere
  </text>
  <text transform="translate(5375 2242)" textLength="361" font-family="Arial" font-size="26" baseline-shift="-25">
    Rechtsvorschriften zur Auswahl
  </text>
  <path fill="none" stroke="#dbdbdb" stroke-width="7" d="M3617 3064h-654v301h654zM3617 3669h-654v-299h654zM3617 3064l165 301-165 302zM2963 3064l-164 301 164 302z"/>
  <path fill="none" stroke="#dbdbdb" stroke-width="7" d="M3617 3063h-654v301h654zM3617 3668h-654v-299h654zM3617 3063l165 301-165 302zM2963 3063l-164 301 164 302z"/>
  <path fill="none" stroke="#a9a9a9" stroke-width="7" d="M3616 3063h-654v301h654zM3616 3668h-654v-299h654zM3616 3063l165 301-165 302zM2962 3063l-164 301 164 302z"/>
  <path fill="none" stroke="#a9a9a9" stroke-width="7" d="M3616 3062h-654v301h654zM3616 3667h-654v-299h654zM3616 3062l165 301-165 302zM2962 3062l-164 301 164 302z"/>
  <path fill="orange" stroke="#000" stroke-width="7" d="M3615 3062h-654v301h654z"/>
  <path fill="#bebebe" stroke="#000" stroke-width="7" d="M3615 3667h-654v-299h654z"/>
  <path fill="#fff" stroke="#000" stroke-width="7" d="M3615 3062l165 301-165 302z"/>
  <path fill="red" stroke="#000" stroke-width="7" d="M2961 3062l-164 301 164 302z"/>
  <text transform="translate(3070 3191)" textLength="438" font-family="Arial" font-size="26" baseline-shift="-25">
    Sozialpädagogisch betreutes Wohnen
  </text>
  <text transform="translate(3241 3105)" textLength="94" font-family="Arial" font-size="26" baseline-shift="-25">
    § 1/2 1a
  </text>
  <text transform="translate(2978 3385)" textLength="620" font-family="Arial" font-size="26" baseline-shift="-25">
    Wohnungen ode Wohnräume, die von einer karitativen
  </text>
  <text transform="translate(3042 3417)" textLength="494" font-family="Arial" font-size="26" baseline-shift="-25">
    oder humanitären Organisation im Rahmen
  </text>
  <text transform="translate(2964 3450)" textLength="649" font-family="Arial" font-size="26" baseline-shift="-25">
    sozialpädagogisch betreuten Wohnens vermietet werden
  </text>
  <ellipse cx="3288" cy="1587" rx="434.5" ry="226.5" fill="orange" stroke="#000" stroke-width="7"/>
  <text transform="translate(3154 1565)" textLength="268" font-family="Arial" font-size="26" baseline-shift="-25">
    Beginn Mietzinsbildung
  </text>
  <text transform="translate(3226 1597)" textLength="124" font-family="Arial" font-size="26" baseline-shift="-25">
    nach MRG
  </text>
  <path fill="none" stroke="#dbdbdb" stroke-width="7" d="M3706 2232l-166-227h-499l-167 227 167 227h499z"/>
  <path fill="none" stroke="#dbdbdb" stroke-width="7" d="M3706 2231l-166-227h-499l-167 227 167 227h499z"/>
  <path fill="none" stroke="#a9a9a9" stroke-width="7" d="M3705 2231l-166-227h-499l-167 227 167 227h499z"/>
  <path fill="none" stroke="#a9a9a9" stroke-width="7" d="M3705 2230l-166-227h-499l-167 227 167 227h499z"/>
  <path fill="orange" stroke="#000" stroke-width="7" d="M3704 2230l-166-227h-499l-167 227 167 227h499z"/>
  <text transform="translate(3234 2207)" textLength="110" font-family="Arial" font-size="26" baseline-shift="-25">
    Wohnung
  </text>
  <path fill="none" stroke="#dbdbdb" stroke-width="7" d="M3617 3896h-654v301h654zM3617 4500h-654v-299h654zM3617 3896l165 301-165 301zM2963 3896l-164 301 164 301z"/>
  <path fill="none" stroke="#dbdbdb" stroke-width="7" d="M3617 3895h-654v301h654zM3617 4499h-654v-299h654zM3617 3895l165 301-165 301zM2963 3895l-164 301 164 301z"/>
  <path fill="none" stroke="#a9a9a9" stroke-width="7" d="M3616 3895h-654v301h654zM3616 4499h-654v-299h654zM3616 3895l165 301-165 301zM2962 3895l-164 301 164 301z"/>
  <path fill="none" stroke="#a9a9a9" stroke-width="7" d="M3616 3894h-654v301h654zM3616 4498h-654v-299h654zM3616 3894l165 301-165 301zM2962 3894l-164 301 164 301z"/>
  <path fill="orange" stroke="#000" stroke-width="7" d="M3615 3894h-654v301h654z"/>
  <path fill="#bebebe" stroke="#000" stroke-width="7" d="M3615 4498h-654v-299h654z"/>
  <path fill="#fff" stroke="#000" stroke-width="7" d="M3615 3894l165 301-165 301z"/>
  <path fill="red" stroke="#000" stroke-width="7" d="M2961 3894l-164 301 164 301z"/>
  <text transform="translate(3098 4023)" textLength="382" font-family="Arial" font-size="26" baseline-shift="-25">
    Dienst-, Natural-, Werkswohnung
  </text>
  <text transform="translate(3249 3937)" textLength="79" font-family="Arial" font-size="26" baseline-shift="-25">
    § 1/2/2
  </text>
  <text transform="translate(2984 4216)" textLength="609" font-family="Arial" font-size="26" baseline-shift="-25">
    Wohnungen, die auf Grund eines Dienstverhältnisses
  </text>
  <text transform="translate(2969 4249)" textLength="638" font-family="Arial" font-size="26" baseline-shift="-25">
    oder im Zusammenhang mit einem solchen als Dienst,-
  </text>
  <text transform="translate(3005 4281)" textLength="565" font-family="Arial" font-size="26" baseline-shift="-25">
    Natural- oder Werkswohnung überlassen werden.
  </text>
  <path d="M3288 1051v298" fill="none" stroke="#000" stroke-width="15"/>
  <path stroke="#000" stroke-width="15" d="M3280 1334l8 15 9-15z"/>
  <path d="M3288 1826v166" fill="none" stroke="#000" stroke-width="15"/>
  <path stroke="#000" stroke-width="15" d="M3280 1977l8 15 9-15z"/>
  <path d="M3715 2230h1584" fill="none" stroke="#000" stroke-width="15"/>
  <path stroke="#000" stroke-width="15" d="M5284 2238l15-8-15-8z"/>
  <text transform="translate(5223 2154)" textLength="51" font-family="Arial" font-size="26" baseline-shift="-25">
    Nein
  </text>
  <path d="M3288 2468v583" fill="none" stroke="#000" stroke-width="15"/>
  <path stroke="#000" stroke-width="15" d="M3280 3036l8 15 9-15z"/>
  <text transform="translate(3364 2975)" textLength="26" font-family="Arial" font-size="26" baseline-shift="-25">
    Ja
  </text>
  <path d="M3791 3402h249c3 0 4 2 4 3v371c0 2-1 4-4 4h-786c-1 0-4 2-4 3v99" fill="none" stroke="#000" stroke-width="15"/>
  <path stroke="#000" stroke-width="15" d="M3242 3867l8 15 9-15z"/>
  <text transform="translate(3326 3807)" textLength="51" font-family="Arial" font-size="26" baseline-shift="-25">
    Nein
  </text>
  <path fill="none" stroke="#dbdbdb" stroke-width="7" d="M1917 910h-655v301h655zM1917 1515h-655v-300h655zM1917 910l164 301-164 301zM1262 910l-164 301 164 301z"/>
  <path fill="none" stroke="#dbdbdb" stroke-width="7" d="M1917 909h-655v301h655zM1917 1514h-655v-300h655zM1917 909l164 301-164 301zM1262 909l-164 301 164 301z"/>
  <path fill="none" stroke="#a9a9a9" stroke-width="7" d="M1916 909h-655v301h655zM1916 1514h-655v-300h655zM1916 909l164 301-164 301zM1261 909l-164 301 164 301z"/>
  <path fill="none" stroke="#a9a9a9" stroke-width="7" d="M1916 908h-655v301h655zM1916 1513h-655v-300h655zM1916 908l164 301-164 301zM1261 908l-164 301 164 301z"/>
  <path fill="orange" stroke="#000" stroke-width="7" d="M1915 908h-655v301h655z"/>
  <path fill="#bebebe" stroke="#000" stroke-width="7" d="M1915 1513h-655v-300h655z"/>
  <path fill="#fff" stroke="#000" stroke-width="7" d="M1915 908l164 301-164 301z"/>
  <path fill="red" stroke="#000" stroke-width="7" d="M1260 908l-164 301 164 301z"/>
  <text transform="translate(1330 1037)" textLength="516" font-family="Arial" font-size="26" baseline-shift="-25">
    Sozialpädagogisch betreutes Wohnen-31800
  </text>
  <text transform="translate(1541 951)" textLength="94" font-family="Arial" font-size="26" baseline-shift="-25">
    § 1/2 1a
  </text>
  <text transform="translate(1277 1231)" textLength="620" font-family="Arial" font-size="26" baseline-shift="-25">
    Wohnungen ode Wohnräume, die von einer karitativen
  </text>
  <text transform="translate(1341 1263)" textLength="494" font-family="Arial" font-size="26" baseline-shift="-25">
    oder humanitären Organisation im Rahmen
  </text>
  <text transform="translate(1263 1296)" textLength="649" font-family="Arial" font-size="26" baseline-shift="-25">
    sozialpädagogisch betreuten Wohnens vermietet werden
  </text>
</svg>
