<?xml version="1.0" encoding="UTF-8" standalone="no"?>
<svg width="3498.0px" height="2564.0px" version="1.1" xmlns="http://www.w3.org/2000/svg" xmlns:xlink="http://www.w3.org/1999/xlink">
<g>
<rect x="0.0px" y="0.0px" width="3498.0px" height="2564.0px" rx="0.0px" ry="0.0px" style="fill:rgb(255,255,255);"/>
<polygon points=" 1967.0,295.0 1325.0,295.0 1325.0,522.0 1967.0,522.0 " style="fill:none; stroke:rgb(219,219,219); stroke-width:3.0px;"/>
<polygon points=" 1967.0,294.0 1325.0,294.0 1325.0,521.0 1967.0,521.0 " style="fill:none; stroke:rgb(219,219,219); stroke-width:3.0px;"/>
<polygon points=" 1966.0,294.0 1324.0,294.0 1324.0,521.0 1966.0,521.0 " style="fill:none; stroke:rgb(169,169,169); stroke-width:3.0px;"/>
<polygon points=" 1966.0,293.0 1324.0,293.0 1324.0,520.0 1966.0,520.0 " style="fill:none; stroke:rgb(169,169,169); stroke-width:3.0px;"/>
<polygon points=" 1965.0,293.0 1323.0,293.0 1323.0,520.0 1965.0,520.0 " style="fill:rgb(255,165,0); stroke:rgb(0,0,0); stroke-width:3.0px;"/>
<text transform="translate(1599.0,350.0), rotate(-0.0)" x="0px" y="0px" textLength="90.0px"
 style="font-family:Arial; font-size:13.0px; fill:rgb(0,0,0); stroke:none; baseline-shift:-13.0px; ">
   Mietzinsbildung
</text>
<ellipse cx="2778.0px" cy="1115.0px" rx="122.5px" ry="103.5px" style="fill:rgb(255,165,0); stroke:rgb(0,0,0); stroke-width:3.0px;"/>
<text transform="translate(2672.0,1105.0), rotate(-0.0)" x="0px" y="0px" textLength="213.0px"
 style="font-family:Arial; font-size:13.0px; fill:rgb(0,0,0); stroke:none; baseline-shift:-13.0px; ">
   Bei Geschäftslokale kommen andere
</text>
<text transform="translate(2688.0,1121.0), rotate(-0.0)" x="0px" y="0px" textLength="181.0px"
 style="font-family:Arial; font-size:13.0px; fill:rgb(0,0,0); stroke:none; baseline-shift:-13.0px; ">
   Rechtsvorschriften zur Auswahl
</text>
<polygon points=" 1810.0,1533.0 1482.0,1533.0 1482.0,1684.0 1810.0,1684.0 " style="fill:none; stroke:rgb(219,219,219); stroke-width:3.0px;"/>
<polygon points=" 1810.0,1835.0 1482.0,1835.0 1482.0,1686.0 1810.0,1686.0 " style="fill:none; stroke:rgb(219,219,219); stroke-width:3.0px;"/>
<polygon points=" 1810.0,1533.0 1892.0,1684.0 1810.0,1834.0 " style="fill:none; stroke:rgb(219,219,219); stroke-width:3.0px;"/>
<polygon points=" 1482.0,1533.0 1400.0,1684.0 1482.0,1834.0 " style="fill:none; stroke:rgb(219,219,219); stroke-width:3.0px;"/>
<polygon points=" 1810.0,1532.0 1482.0,1532.0 1482.0,1683.0 1810.0,1683.0 " style="fill:none; stroke:rgb(219,219,219); stroke-width:3.0px;"/>
<polygon points=" 1810.0,1834.0 1482.0,1834.0 1482.0,1685.0 1810.0,1685.0 " style="fill:none; stroke:rgb(219,219,219); stroke-width:3.0px;"/>
<polygon points=" 1810.0,1532.0 1892.0,1683.0 1810.0,1833.0 " style="fill:none; stroke:rgb(219,219,219); stroke-width:3.0px;"/>
<polygon points=" 1482.0,1532.0 1400.0,1683.0 1482.0,1833.0 " style="fill:none; stroke:rgb(219,219,219); stroke-width:3.0px;"/>
<polygon points=" 1809.0,1532.0 1481.0,1532.0 1481.0,1683.0 1809.0,1683.0 " style="fill:none; stroke:rgb(169,169,169); stroke-width:3.0px;"/>
<polygon points=" 1809.0,1834.0 1481.0,1834.0 1481.0,1685.0 1809.0,1685.0 " style="fill:none; stroke:rgb(169,169,169); stroke-width:3.0px;"/>
<polygon points=" 1809.0,1532.0 1891.0,1683.0 1809.0,1833.0 " style="fill:none; stroke:rgb(169,169,169); stroke-width:3.0px;"/>
<polygon points=" 1481.0,1532.0 1399.0,1683.0 1481.0,1833.0 " style="fill:none; stroke:rgb(169,169,169); stroke-width:3.0px;"/>
<polygon points=" 1809.0,1531.0 1481.0,1531.0 1481.0,1682.0 1809.0,1682.0 " style="fill:none; stroke:rgb(169,169,169); stroke-width:3.0px;"/>
<polygon points=" 1809.0,1833.0 1481.0,1833.0 1481.0,1684.0 1809.0,1684.0 " style="fill:none; stroke:rgb(169,169,169); stroke-width:3.0px;"/>
<polygon points=" 1809.0,1531.0 1891.0,1682.0 1809.0,1832.0 " style="fill:none; stroke:rgb(169,169,169); stroke-width:3.0px;"/>
<polygon points=" 1481.0,1531.0 1399.0,1682.0 1481.0,1832.0 " style="fill:none; stroke:rgb(169,169,169); stroke-width:3.0px;"/>
<polygon points=" 1808.0,1531.0 1480.0,1531.0 1480.0,1682.0 1808.0,1682.0 " style="fill:rgb(255,165,0); stroke:rgb(0,0,0); stroke-width:3.0px;"/>
<polygon points=" 1808.0,1833.0 1480.0,1833.0 1480.0,1684.0 1808.0,1684.0 " style="fill:rgb(190,190,190); stroke:rgb(0,0,0); stroke-width:3.0px;"/>
<polygon points=" 1808.0,1531.0 1890.0,1682.0 1808.0,1832.0 " style="fill:rgb(255,255,255); stroke:rgb(0,0,0); stroke-width:3.0px;"/>
<polygon points=" 1480.0,1531.0 1398.0,1682.0 1480.0,1832.0 " style="fill:rgb(255,0,0); stroke:rgb(0,0,0); stroke-width:3.0px;"/>
<text transform="translate(1535.0,1596.0), rotate(-0.0)" x="0px" y="0px" textLength="219.0px"
 style="font-family:Arial; font-size:13.0px; fill:rgb(0,0,0); stroke:none; baseline-shift:-13.0px; ">
   Sozialpädagogisch betreutes Wohnen
</text>
<text transform="translate(1621.0,1553.0), rotate(-0.0)" x="0px" y="0px" textLength="47.0px"
 style="font-family:Arial; font-size:13.0px; fill:rgb(0,0,0); stroke:none; baseline-shift:-13.0px; ">
   § 1/2 1a
</text>
<text transform="translate(1489.0,1692.0), rotate(-0.0)" x="0px" y="0px" textLength="310.0px"
 style="font-family:Arial; font-size:13.0px; fill:rgb(0,0,0); stroke:none; baseline-shift:-13.0px; ">
   Wohnungen ode Wohnräume, die von einer karitativen
</text>
<text transform="translate(1521.0,1709.0), rotate(-0.0)" x="0px" y="0px" textLength="247.0px"
 style="font-family:Arial; font-size:13.0px; fill:rgb(0,0,0); stroke:none; baseline-shift:-13.0px; ">
   oder humanitären Organisation im Rahmen
</text>
<text transform="translate(1482.0,1725.0), rotate(-0.0)" x="0px" y="0px" textLength="325.0px"
 style="font-family:Arial; font-size:13.0px; fill:rgb(0,0,0); stroke:none; baseline-shift:-13.0px; ">
   sozialpädagogisch betreuten Wohnens vermietet werden
</text>
<ellipse cx="1644.0px" cy="794.0px" rx="217.0px" ry="113.0px" style="fill:rgb(255,165,0); stroke:rgb(0,0,0); stroke-width:3.0px;"/>
<text transform="translate(1577.0,782.0), rotate(-0.0)" x="0px" y="0px" textLength="134.0px"
 style="font-family:Arial; font-size:13.0px; fill:rgb(0,0,0); stroke:none; baseline-shift:-13.0px; ">
   Beginn Mietzinsbildung
</text>
<text transform="translate(1613.0,799.0), rotate(-0.0)" x="0px" y="0px" textLength="62.0px"
 style="font-family:Arial; font-size:13.0px; fill:rgb(0,0,0); stroke:none; baseline-shift:-13.0px; ">
   nach MRG
</text>
<polygon points=" 1854.0,1117.0 1771.0,1004.0 1521.0,1004.0 1438.0,1117.0 1521.0,1230.0 1688.0,1230.0 1771.0,1230.0 " style="fill:none; stroke:rgb(219,219,219); stroke-width:3.0px;"/>
<polygon points=" 1854.0,1116.0 1771.0,1003.0 1521.0,1003.0 1438.0,1116.0 1521.0,1229.0 1688.0,1229.0 1771.0,1229.0 " style="fill:none; stroke:rgb(219,219,219); stroke-width:3.0px;"/>
<polygon points=" 1853.0,1116.0 1770.0,1003.0 1520.0,1003.0 1437.0,1116.0 1520.0,1229.0 1687.0,1229.0 1770.0,1229.0 " style="fill:none; stroke:rgb(169,169,169); stroke-width:3.0px;"/>
<polygon points=" 1853.0,1115.0 1770.0,1002.0 1520.0,1002.0 1437.0,1115.0 1520.0,1228.0 1687.0,1228.0 1770.0,1228.0 " style="fill:none; stroke:rgb(169,169,169); stroke-width:3.0px;"/>
<polygon points=" 1852.0,1115.0 1769.0,1002.0 1519.0,1002.0 1436.0,1115.0 1519.0,1228.0 1686.0,1228.0 1769.0,1228.0 " style="fill:rgb(255,165,0); stroke:rgb(0,0,0); stroke-width:3.0px;"/>
<text transform="translate(1617.0,1104.0), rotate(-0.0)" x="0px" y="0px" textLength="55.0px"
 style="font-family:Arial; font-size:13.0px; fill:rgb(0,0,0); stroke:none; baseline-shift:-13.0px; ">
   Wohnung
</text>
<polygon points=" 1810.0,1949.0 1482.0,1949.0 1482.0,2099.0 1810.0,2099.0 " style="fill:none; stroke:rgb(219,219,219); stroke-width:3.0px;"/>
<polygon points=" 1810.0,2251.0 1482.0,2251.0 1482.0,2102.0 1810.0,2102.0 " style="fill:none; stroke:rgb(219,219,219); stroke-width:3.0px;"/>
<polygon points=" 1810.0,1949.0 1892.0,2099.0 1810.0,2250.0 " style="fill:none; stroke:rgb(219,219,219); stroke-width:3.0px;"/>
<polygon points=" 1482.0,1949.0 1400.0,2099.0 1482.0,2250.0 " style="fill:none; stroke:rgb(219,219,219); stroke-width:3.0px;"/>
<polygon points=" 1810.0,1948.0 1482.0,1948.0 1482.0,2098.0 1810.0,2098.0 " style="fill:none; stroke:rgb(219,219,219); stroke-width:3.0px;"/>
<polygon points=" 1810.0,2250.0 1482.0,2250.0 1482.0,2101.0 1810.0,2101.0 " style="fill:none; stroke:rgb(219,219,219); stroke-width:3.0px;"/>
<polygon points=" 1810.0,1948.0 1892.0,2098.0 1810.0,2249.0 " style="fill:none; stroke:rgb(219,219,219); stroke-width:3.0px;"/>
<polygon points=" 1482.0,1948.0 1400.0,2098.0 1482.0,2249.0 " style="fill:none; stroke:rgb(219,219,219); stroke-width:3.0px;"/>
<polygon points=" 1809.0,1948.0 1481.0,1948.0 1481.0,2098.0 1809.0,2098.0 " style="fill:none; stroke:rgb(169,169,169); stroke-width:3.0px;"/>
<polygon points=" 1809.0,2250.0 1481.0,2250.0 1481.0,2101.0 1809.0,2101.0 " style="fill:none; stroke:rgb(169,169,169); stroke-width:3.0px;"/>
<polygon points=" 1809.0,1948.0 1891.0,2098.0 1809.0,2249.0 " style="fill:none; stroke:rgb(169,169,169); stroke-width:3.0px;"/>
<polygon points=" 1481.0,1948.0 1399.0,2098.0 1481.0,2249.0 " style="fill:none; stroke:rgb(169,169,169); stroke-width:3.0px;"/>
<polygon points=" 1809.0,1947.0 1481.0,1947.0 1481.0,2097.0 1809.0,2097.0 " style="fill:none; stroke:rgb(169,169,169); stroke-width:3.0px;"/>
<polygon points=" 1809.0,2249.0 1481.0,2249.0 1481.0,2100.0 1809.0,2100.0 " style="fill:none; stroke:rgb(169,169,169); stroke-width:3.0px;"/>
<polygon points=" 1809.0,1947.0 1891.0,2097.0 1809.0,2248.0 " style="fill:none; stroke:rgb(169,169,169); stroke-width:3.0px;"/>
<polygon points=" 1481.0,1947.0 1399.0,2097.0 1481.0,2248.0 " style="fill:none; stroke:rgb(169,169,169); stroke-width:3.0px;"/>
<polygon points=" 1808.0,1947.0 1480.0,1947.0 1480.0,2097.0 1808.0,2097.0 " style="fill:rgb(255,165,0); stroke:rgb(0,0,0); stroke-width:3.0px;"/>
<polygon points=" 1808.0,2249.0 1480.0,2249.0 1480.0,2100.0 1808.0,2100.0 " style="fill:rgb(190,190,190); stroke:rgb(0,0,0); stroke-width:3.0px;"/>
<polygon points=" 1808.0,1947.0 1890.0,2097.0 1808.0,2248.0 " style="fill:rgb(255,255,255); stroke:rgb(0,0,0); stroke-width:3.0px;"/>
<polygon points=" 1480.0,1947.0 1398.0,2097.0 1480.0,2248.0 " style="fill:rgb(255,0,0); stroke:rgb(0,0,0); stroke-width:3.0px;"/>
<text transform="translate(1549.0,2011.0), rotate(-0.0)" x="0px" y="0px" textLength="191.0px"
 style="font-family:Arial; font-size:13.0px; fill:rgb(0,0,0); stroke:none; baseline-shift:-13.0px; ">
   Dienst-, Natural-, Werkswohnung
</text>
<text transform="translate(1624.0,1968.0), rotate(-0.0)" x="0px" y="0px" textLength="40.0px"
 style="font-family:Arial; font-size:13.0px; fill:rgb(0,0,0); stroke:none; baseline-shift:-13.0px; ">
   § 1/2/2
</text>
<text transform="translate(1492.0,2108.0), rotate(-0.0)" x="0px" y="0px" textLength="305.0px"
 style="font-family:Arial; font-size:13.0px; fill:rgb(0,0,0); stroke:none; baseline-shift:-13.0px; ">
   Wohnungen, die auf Grund eines Dienstverhältnisses
</text>
<text transform="translate(1485.0,2124.0), rotate(-0.0)" x="0px" y="0px" textLength="319.0px"
 style="font-family:Arial; font-size:13.0px; fill:rgb(0,0,0); stroke:none; baseline-shift:-13.0px; ">
   oder im Zusammenhang mit einem solchen als Dienst,-
</text>
<text transform="translate(1503.0,2141.0), rotate(-0.0)" x="0px" y="0px" textLength="283.0px"
 style="font-family:Arial; font-size:13.0px; fill:rgb(0,0,0); stroke:none; baseline-shift:-13.0px; ">
   Natural- oder Werkswohnung überlassen werden.
</text>
<path d="M 1644.0 525.0 L 1644.0 675.0" style="fill:none; stroke:rgb(0,0,0); stroke-width:7.0px;"/>
<polygon points=" 1640.0,667.0 1644.0,675.0 1648.0,667.0 " style="fill:rgb(0,0,0); stroke:rgb(0,0,0); stroke-width:7.0px;"/>
<path d="M 1644.0 913.0 L 1644.0 996.0" style="fill:none; stroke:rgb(0,0,0); stroke-width:7.0px;"/>
<polygon points=" 1640.0,988.0 1644.0,996.0 1648.0,988.0 " style="fill:rgb(0,0,0); stroke:rgb(0,0,0); stroke-width:7.0px;"/>
<path d="M 1858.0 1115.0 L 2649.0 1115.0" style="fill:none; stroke:rgb(0,0,0); stroke-width:7.0px;"/>
<polygon points=" 2642.0,1119.0 2649.0,1115.0 2642.0,1111.0 " style="fill:rgb(0,0,0); stroke:rgb(0,0,0); stroke-width:7.0px;"/>
<text transform="translate(2612.0,1077.0), rotate(-0.0)" x="0px" y="0px" textLength="26.0px"
 style="font-family:Arial; font-size:13.0px; fill:rgb(0,0,0); stroke:none; baseline-shift:-13.0px; ">
   Nein
</text>
<path d="M 1644.0 1234.0 L 1644.0 1525.0" style="fill:none; stroke:rgb(0,0,0); stroke-width:7.0px;"/>
<polygon points=" 1640.0,1518.0 1644.0,1525.0 1648.0,1518.0 " style="fill:rgb(0,0,0); stroke:rgb(0,0,0); stroke-width:7.0px;"/>
<text transform="translate(1682.0,1488.0), rotate(-0.0)" x="0px" y="0px" textLength="13.0px"
 style="font-family:Arial; font-size:13.0px; fill:rgb(0,0,0); stroke:none; baseline-shift:-13.0px; ">
   Ja
</text>
<path d="M 1895.0 1701.0 L 2020.0 1701.0 C 2021.0 1701.0 2022.0 1702.0 2022.0 1703.0 L 2022.0 1888.0 C 2022.0 1889.0 2021.0 1890.0 2020.0 1890.0 L 1627.0 1890.0 C 1626.0 1890.0 1625.0 1891.0 1625.0 1892.0 L 1625.0 1941.0" style="fill:none; stroke:rgb(0,0,0); stroke-width:7.0px;"/>
<polygon points=" 1621.0,1934.0 1625.0,1941.0 1629.0,1934.0 " style="fill:rgb(0,0,0); stroke:rgb(0,0,0); stroke-width:7.0px;"/>
<text transform="translate(1663.0,1903.0), rotate(-0.0)" x="0px" y="0px" textLength="26.0px"
 style="font-family:Arial; font-size:13.0px; fill:rgb(0,0,0); stroke:none; baseline-shift:-13.0px; ">
   Nein
</text>
<polygon points=" 959.0,456.0 632.0,456.0 632.0,606.0 959.0,606.0 " style="fill:none; stroke:rgb(219,219,219); stroke-width:3.0px;"/>
<polygon points=" 959.0,758.0 632.0,758.0 632.0,609.0 959.0,609.0 " style="fill:none; stroke:rgb(219,219,219); stroke-width:3.0px;"/>
<polygon points=" 959.0,456.0 1041.0,606.0 959.0,757.0 " style="fill:none; stroke:rgb(219,219,219); stroke-width:3.0px;"/>
<polygon points=" 632.0,456.0 550.0,606.0 632.0,757.0 " style="fill:none; stroke:rgb(219,219,219); stroke-width:3.0px;"/>
<polygon points=" 959.0,455.0 632.0,455.0 632.0,605.0 959.0,605.0 " style="fill:none; stroke:rgb(219,219,219); stroke-width:3.0px;"/>
<polygon points=" 959.0,757.0 632.0,757.0 632.0,608.0 959.0,608.0 " style="fill:none; stroke:rgb(219,219,219); stroke-width:3.0px;"/>
<polygon points=" 959.0,455.0 1041.0,605.0 959.0,756.0 " style="fill:none; stroke:rgb(219,219,219); stroke-width:3.0px;"/>
<polygon points=" 632.0,455.0 550.0,605.0 632.0,756.0 " style="fill:none; stroke:rgb(219,219,219); stroke-width:3.0px;"/>
<polygon points=" 958.0,455.0 631.0,455.0 631.0,605.0 958.0,605.0 " style="fill:none; stroke:rgb(169,169,169); stroke-width:3.0px;"/>
<polygon points=" 958.0,757.0 631.0,757.0 631.0,608.0 958.0,608.0 " style="fill:none; stroke:rgb(169,169,169); stroke-width:3.0px;"/>
<polygon points=" 958.0,455.0 1040.0,605.0 958.0,756.0 " style="fill:none; stroke:rgb(169,169,169); stroke-width:3.0px;"/>
<polygon points=" 631.0,455.0 549.0,605.0 631.0,756.0 " style="fill:none; stroke:rgb(169,169,169); stroke-width:3.0px;"/>
<polygon points=" 958.0,454.0 631.0,454.0 631.0,604.0 958.0,604.0 " style="fill:none; stroke:rgb(169,169,169); stroke-width:3.0px;"/>
<polygon points=" 958.0,756.0 631.0,756.0 631.0,607.0 958.0,607.0 " style="fill:none; stroke:rgb(169,169,169); stroke-width:3.0px;"/>
<polygon points=" 958.0,454.0 1040.0,604.0 958.0,755.0 " style="fill:none; stroke:rgb(169,169,169); stroke-width:3.0px;"/>
<polygon points=" 631.0,454.0 549.0,604.0 631.0,755.0 " style="fill:none; stroke:rgb(169,169,169); stroke-width:3.0px;"/>
<polygon points=" 957.0,454.0 630.0,454.0 630.0,604.0 957.0,604.0 " style="fill:rgb(255,165,0); stroke:rgb(0,0,0); stroke-width:3.0px;"/>
<polygon points=" 957.0,756.0 630.0,756.0 630.0,607.0 957.0,607.0 " style="fill:rgb(190,190,190); stroke:rgb(0,0,0); stroke-width:3.0px;"/>
<polygon points=" 957.0,454.0 1039.0,604.0 957.0,755.0 " style="fill:rgb(255,255,255); stroke:rgb(0,0,0); stroke-width:3.0px;"/>
<polygon points=" 630.0,454.0 548.0,604.0 630.0,755.0 " style="fill:rgb(255,0,0); stroke:rgb(0,0,0); stroke-width:3.0px;"/>
<text transform="translate(665.0,519.0), rotate(-0.0)" x="0px" y="0px" textLength="258.0px"
 style="font-family:Arial; font-size:13.0px; fill:rgb(0,0,0); stroke:none; baseline-shift:-13.0px; ">
   Sozialpädagogisch betreutes Wohnen-31800
</text>
<text transform="translate(770.0,475.0), rotate(-0.0)" x="0px" y="0px" textLength="47.0px"
 style="font-family:Arial; font-size:13.0px; fill:rgb(0,0,0); stroke:none; baseline-shift:-13.0px; ">
   § 1/2 1a
</text>
<text transform="translate(639.0,615.0), rotate(-0.0)" x="0px" y="0px" textLength="310.0px"
 style="font-family:Arial; font-size:13.0px; fill:rgb(0,0,0); stroke:none; baseline-shift:-13.0px; ">
   Wohnungen ode Wohnräume, die von einer karitativen
</text>
<text transform="translate(670.0,632.0), rotate(-0.0)" x="0px" y="0px" textLength="247.0px"
 style="font-family:Arial; font-size:13.0px; fill:rgb(0,0,0); stroke:none; baseline-shift:-13.0px; ">
   oder humanitären Organisation im Rahmen
</text>
<text transform="translate(632.0,648.0), rotate(-0.0)" x="0px" y="0px" textLength="325.0px"
 style="font-family:Arial; font-size:13.0px; fill:rgb(0,0,0); stroke:none; baseline-shift:-13.0px; ">
   sozialpädagogisch betreuten Wohnens vermietet werden
</text>
</g>
</svg>
